<svg width="603" height="575" viewBox="0 0 603 575" fill="none" xmlns="http://www.w3.org/2000/svg">
<g clip-path="url(#clip0)">
<path d="M514.691 527.857C396.948 590.714 206.047 590.715 88.3059 527.858C-29.4368 465 -29.4368 363.086 88.3059 300.229C206.05 237.37 396.949 237.37 514.693 300.228C632.435 363.085 632.435 465 514.691 527.857Z" fill="#EDEDEB"/>
<path d="M305.215 443.128L219.172 492.608C218.181 493.181 216.572 493.181 215.579 492.608L63.2762 404.662C62.2845 404.088 62.2845 403.16 63.2762 402.587L149.318 353.107C150.31 352.535 151.919 352.535 152.912 353.107L305.215 441.054C306.208 441.626 306.208 442.555 305.215 443.128Z" fill="#DADBD8"/>
<path d="M42.358 468.82C42.6374 466.616 45.2776 465.499 46.7311 464.659L105.488 430.63C108.084 429.13 111.296 429.074 113.891 430.572L172.63 464.454C174.361 465.454 177.192 467.364 177.192 469.601C177.192 471.838 175.645 472.332 172.8 473.976C169.953 475.62 114.475 507.676 114.475 507.676C111.502 509.394 107.84 509.394 104.868 507.676L44.6884 473.195C42.7093 471.846 42.1768 470.25 42.358 468.82Z" fill="#DADBD8"/>
<path d="M242.6 295.039L228.74 287.035C228.054 286.637 227.072 286.41 226.089 286.413C225.107 286.41 224.128 286.637 223.442 287.035L136.551 337.211L135.859 336.013L222.751 285.837C223.719 285.283 224.905 285.031 226.089 285.029C227.274 285.031 228.462 285.281 229.432 285.837L243.291 293.841L242.6 295.039Z" fill="#26B6A6"/>
<path d="M248.217 291.795L228.739 280.548C228.054 280.148 227.074 279.921 226.09 279.924C225.108 279.921 224.128 280.148 223.442 280.548L130.933 333.967L130.241 332.769L222.75 279.35C223.718 278.794 224.906 278.544 226.09 278.541C227.276 278.544 228.462 278.794 229.43 279.35L248.909 290.597L248.217 291.795Z" fill="#26B6A6"/>
<path d="M124.622 329.526L222.75 272.861C223.718 272.307 224.905 272.055 226.089 272.052C227.274 272.055 228.462 272.305 229.432 272.861L254.525 287.342L253.834 288.54L228.74 274.059C228.054 273.659 227.074 273.434 226.089 273.435C225.107 273.434 224.128 273.661 223.442 274.059L125.313 330.724L124.622 329.526Z" fill="#26B6A6"/>
<path d="M119.004 326.281L222.75 266.374C223.72 265.818 224.907 265.567 226.092 265.565C227.276 265.567 228.464 265.818 229.432 266.372L260.164 284.11L259.473 285.308L228.74 267.572C228.054 267.172 227.074 266.945 226.092 266.948C225.108 266.945 224.128 267.172 223.442 267.572L119.695 327.479L119.004 326.281Z" fill="#26B6A6"/>
<path d="M330.227 0.989197L419.743 52.6782C421.397 53.634 422.738 55.9565 422.738 57.8653V303.983C422.738 305.892 421.397 308.214 419.743 309.17L330.225 360.86C328.571 361.815 325.891 361.815 324.237 360.86L234.723 309.17C233.069 308.216 231.728 305.893 231.728 303.983V57.8667C231.728 55.9565 233.069 53.634 234.723 52.6796L324.237 0.989197C325.891 0.0333862 328.573 0.0333862 330.227 0.989197Z" fill="#263E47"/>
<path d="M231.732 57.8611V303.981C231.732 305.89 233.073 308.214 234.719 309.169L324.243 360.86C325.059 361.344 326.151 361.58 327.23 361.58V108.543C326.151 108.543 325.072 108.294 324.243 107.824L234.719 56.132L233.903 55.4542L232.838 54.569C232.161 55.5926 231.732 56.7821 231.732 57.8611Z" fill="#17282F"/>
<path d="M408.508 82.0886L341.461 120.803C339.809 121.757 338.467 124.08 338.468 125.99V151.515C338.468 153.424 339.81 154.198 341.463 153.244L408.506 114.528C410.16 113.574 411.501 111.252 411.501 109.341L411.502 83.8177C411.502 81.9074 410.162 81.1342 408.508 82.0886Z" fill="#33535F"/>
<path d="M405.884 93.3357C405.884 95.127 404.542 97.354 402.89 98.3085L347.08 130.535C345.426 131.49 344.086 130.812 344.086 129.021C344.086 127.228 345.426 125.002 347.08 124.046L402.89 91.821C404.542 90.8666 405.884 91.5444 405.884 93.3357Z" fill="#26B6A6"/>
<path d="M405.884 106.312C405.884 108.103 404.542 110.33 402.89 111.285L347.08 143.511C345.426 144.466 344.086 143.788 344.086 141.997C344.086 140.204 345.426 137.978 347.08 137.024L402.89 104.797C404.542 103.843 405.884 104.52 405.884 106.312Z" fill="#17282F"/>
<path d="M402.89 104.797L372.176 122.532V129.019L402.89 111.285C404.542 110.33 405.884 108.103 405.884 106.312C405.884 104.52 404.542 103.843 402.89 104.797Z" fill="#26B6A6"/>
<path d="M408.508 127.505L341.461 166.219C339.809 167.173 338.467 169.496 338.468 171.406V196.931C338.468 198.84 339.81 199.614 341.463 198.66L408.506 159.946C410.16 158.99 411.501 156.667 411.501 154.759L411.502 129.234C411.502 127.323 410.162 126.55 408.508 127.505Z" fill="#33535F"/>
<path d="M405.884 138.752C405.884 140.543 404.542 142.77 402.89 143.724L347.08 175.951C345.426 176.906 344.086 176.228 344.086 174.437C344.086 172.645 345.426 170.418 347.08 169.462L402.89 137.237C404.542 136.283 405.884 136.96 405.884 138.752Z" fill="#26B6A6"/>
<path d="M405.884 151.728C405.884 153.519 404.542 155.746 402.89 156.701L347.08 188.927C345.426 189.882 344.086 189.204 344.086 187.413C344.086 185.621 345.426 183.394 347.08 182.44L402.89 150.213C404.542 149.259 405.884 149.937 405.884 151.728Z" fill="#17282F"/>
<path d="M402.89 150.213L355.322 177.68V184.168L402.89 156.701C404.542 155.746 405.884 153.519 405.884 151.728C405.884 149.937 404.542 149.259 402.89 150.213Z" fill="#26B6A6"/>
<path d="M408.508 172.921L341.461 211.635C339.809 212.589 338.467 214.912 338.468 216.822V242.347C338.468 244.257 339.81 245.03 341.463 244.076L408.506 205.362C410.16 204.406 411.501 202.083 411.501 200.175L411.502 174.65C411.502 172.741 410.162 171.966 408.508 172.921Z" fill="#33535F"/>
<path d="M405.884 184.168C405.884 185.96 404.542 188.186 402.89 189.142L347.08 221.367C345.426 222.322 344.086 221.644 344.086 219.853C344.086 218.061 345.426 215.834 347.08 214.88L402.89 182.653C404.542 181.699 405.884 182.376 405.884 184.168Z" fill="#26B6A6"/>
<path d="M405.884 197.144C405.884 198.937 404.542 201.162 402.89 202.118L347.08 234.343C345.426 235.299 344.086 234.62 344.086 232.829C344.086 231.038 345.426 228.811 347.08 227.856L402.89 195.629C404.542 194.675 405.884 195.353 405.884 197.144Z" fill="#17282F"/>
<path d="M402.89 195.629L383.411 206.876V213.364L402.89 202.117C404.542 201.162 405.884 198.937 405.884 197.144C405.884 195.353 404.542 194.675 402.89 195.629Z" fill="#26B6A6"/>
<path d="M408.508 218.336L341.461 257.051C339.809 258.006 338.467 260.327 338.468 262.238V287.763C338.468 289.673 339.81 290.446 341.463 289.492L408.506 250.778C410.16 249.823 411.501 247.501 411.501 245.59L411.502 220.065C411.502 218.157 410.162 217.382 408.508 218.336Z" fill="#33535F"/>
<path d="M405.884 229.584C405.884 231.376 404.542 233.602 402.89 234.558L347.08 266.783C345.426 267.739 344.086 267.06 344.086 265.269C344.086 263.477 345.426 261.25 347.08 260.296L402.89 228.069C404.542 227.115 405.884 227.792 405.884 229.584Z" fill="#26B6A6"/>
<path d="M405.884 242.561C405.884 244.352 404.542 246.578 402.89 247.534L347.08 279.759C345.426 280.715 344.086 280.036 344.086 278.245C344.086 276.453 345.426 274.226 347.08 273.272L402.89 241.045C404.542 240.091 405.884 240.768 405.884 242.561Z" fill="#17282F"/>
<path d="M402.89 241.045L372.176 258.781V265.269L402.89 247.534C404.542 246.578 405.884 244.353 405.884 242.561C405.884 240.769 404.542 240.091 402.89 241.045Z" fill="#26B6A6"/>
<path d="M408.508 263.753L341.461 302.467C339.809 303.423 338.467 305.745 338.468 307.654V333.179C338.468 335.089 339.81 335.862 341.463 334.908L408.506 296.194C410.16 295.239 411.501 292.917 411.501 291.007L411.502 265.482C411.502 263.573 410.162 262.798 408.508 263.753Z" fill="#33535F"/>
<path d="M405.884 275.001C405.884 276.792 404.542 279.018 402.89 279.974L347.08 312.199C345.426 313.155 344.086 312.476 344.086 310.685C344.086 308.893 345.426 306.666 347.08 305.712L402.89 273.485C404.542 272.531 405.884 273.208 405.884 275.001Z" fill="#26B6A6"/>
<path d="M405.884 287.977C405.884 289.768 404.542 291.994 402.89 292.95L347.08 325.175C345.426 326.131 344.086 325.452 344.086 323.661C344.086 321.869 345.426 319.642 347.08 318.688L402.89 286.461C404.542 285.507 405.884 286.184 405.884 287.977Z" fill="#17282F"/>
<path d="M402.89 286.461L360.94 310.684V317.172L402.89 292.95C404.542 291.994 405.884 289.768 405.884 287.977C405.884 286.184 404.542 285.507 402.89 286.461Z" fill="#26B6A6"/>
<path d="M313.188 124.167C310.085 122.368 307.57 124.006 307.57 127.825L307.569 276.209C307.569 280.028 310.085 284.583 313.187 286.381C316.29 288.18 318.805 286.543 318.805 282.722L318.806 134.34C318.806 130.521 316.29 125.966 313.188 124.167Z" fill="#263E47"/>
<path d="M313.187 283.097C311.636 282.201 310.378 279.927 310.378 278.018L310.379 129.221C310.379 127.311 311.636 126.489 313.188 127.384C314.74 128.279 315.997 130.555 315.997 132.463L315.996 281.262C315.996 283.17 314.739 283.993 313.187 283.097Z" fill="#17282F"/>
<path d="M313.187 283.097C311.636 282.201 310.378 279.927 310.378 278.018L310.379 206.876L315.997 210.12L315.996 281.262C315.996 283.17 314.739 283.993 313.187 283.097Z" fill="#26B6A6"/>
<path d="M296.335 114.436C293.231 112.636 290.715 114.275 290.715 118.094V266.476C290.715 270.297 293.231 274.852 296.333 276.65C299.435 278.45 301.951 276.81 301.951 272.991L301.952 124.609C301.952 120.789 299.437 116.235 296.335 114.436Z" fill="#263E47"/>
<path d="M296.333 273.366C294.781 272.47 293.524 270.196 293.524 268.285L293.525 119.489C293.525 117.578 294.783 116.757 296.334 117.653C297.886 118.548 299.143 120.822 299.143 122.732L299.142 271.529C299.142 273.439 297.885 274.261 296.333 273.366Z" fill="#26B6A6"/>
<path d="M279.479 104.705C276.377 102.905 273.862 104.543 273.862 108.363V256.745C273.862 260.564 276.376 265.119 279.479 266.919C282.582 268.717 285.097 267.079 285.097 263.26L285.099 114.877C285.099 111.058 282.583 106.503 279.479 104.705Z" fill="#263E47"/>
<path d="M279.479 263.634C277.928 262.739 276.671 260.463 276.671 258.554V109.758C276.671 107.847 277.929 107.026 279.481 107.921C281.031 108.817 282.29 111.091 282.29 113.001L282.288 261.798C282.288 263.708 281.03 264.53 279.479 263.634Z" fill="#17282F"/>
<path d="M279.479 263.634C277.928 262.739 276.671 260.463 276.671 258.554V143.618L282.29 146.862L282.288 261.798C282.288 263.708 281.03 264.53 279.479 263.634Z" fill="#26B6A6"/>
<path d="M262.626 94.9721C259.524 93.1739 257.008 94.8117 257.008 98.6308L257.007 247.013C257.007 250.833 259.522 255.388 262.624 257.186C265.728 258.986 268.242 257.348 268.244 253.528V105.146C268.244 101.325 265.729 96.7717 262.626 94.9721Z" fill="#263E47"/>
<path d="M262.625 253.902C261.074 253.006 259.816 250.732 259.816 248.822L259.817 100.026C259.817 98.1161 261.074 97.2944 262.626 98.1894C264.178 99.0857 265.435 101.36 265.435 103.27V252.067C265.435 253.976 264.176 254.799 262.625 253.902Z" fill="#17282F"/>
<path d="M262.624 253.902C261.074 253.006 259.816 250.732 259.817 248.822V223.709L265.435 226.953V252.067C265.435 253.976 264.176 254.799 262.624 253.902Z" fill="#26B6A6"/>
<path d="M245.772 85.2409C242.669 83.4413 240.154 85.0804 240.154 88.8996L240.153 237.281C240.153 241.1 242.669 245.656 245.771 247.455C248.874 249.255 251.389 247.616 251.389 243.796L251.39 95.4146C251.39 91.5941 248.874 87.0391 245.772 85.2409Z" fill="#263E47"/>
<path d="M245.771 244.171C244.219 243.275 242.962 241.001 242.962 239.091L242.963 90.2939C242.963 88.3836 244.221 87.562 245.772 88.4583C247.324 89.3532 248.581 91.6287 248.581 93.5376L248.58 242.334C248.58 244.245 247.323 245.066 245.771 244.171Z" fill="#17282F"/>
<path d="M245.771 244.171C244.219 243.275 242.962 241.001 242.962 239.091L242.963 161.46L248.581 164.704L248.58 242.334C248.58 244.245 247.323 245.066 245.771 244.171Z" fill="#26B6A6"/>
<path d="M316.409 304.435L242.548 261.785C241.226 261.022 240.153 261.64 240.153 263.169V290.076C240.153 291.604 241.226 293.462 242.548 294.225L316.409 336.876C317.733 337.64 318.804 337.02 318.804 335.493V308.585C318.804 307.058 317.733 305.2 316.409 304.435Z" fill="#263E47"/>
<path d="M313.373 312.414C313.373 314.205 312.032 314.884 310.378 313.928L248.581 278.234C246.927 277.278 245.587 275.052 245.586 273.261C245.586 271.468 246.926 270.79 248.58 271.746L310.38 307.441C312.033 308.397 313.373 310.622 313.373 312.414Z" fill="#17282F"/>
<path d="M313.373 312.414C313.373 314.205 312.032 314.883 310.378 313.928L265.436 287.963L265.435 281.476L310.38 307.441C312.033 308.395 313.373 310.622 313.373 312.414Z" fill="#26B6A6"/>
<path d="M313.373 325.39C313.373 327.181 312.032 327.86 310.378 326.904L248.581 291.21C246.927 290.254 245.587 288.028 245.586 286.237C245.586 284.446 246.926 283.766 248.58 284.722L310.38 320.417C312.033 321.373 313.373 323.598 313.373 325.39Z" fill="#17282F"/>
<path d="M313.373 325.39C313.373 327.181 312.032 327.86 310.378 326.904L293.524 317.172L293.523 310.684L310.38 320.417C312.033 321.373 313.373 323.598 313.373 325.39Z" fill="#26B6A6"/>
<path d="M234.723 52.6795L324.238 0.98909C325.892 0.0332718 328.574 0.0332718 330.227 0.98909L419.743 52.6781C421.397 53.6339 421.397 55.1817 419.743 56.1362L330.225 107.827C328.571 108.782 325.891 108.782 324.237 107.827L234.723 56.1376C233.069 55.1817 233.069 53.6339 234.723 52.6795Z" fill="#33535F"/>
<path d="M329.029 95.5419L398.47 55.4444C399.461 54.8718 400.266 53.4789 400.266 52.3321V49.9945C400.266 48.8492 399.461 47.4548 398.47 46.8822L329.029 6.78475C328.037 6.21209 326.429 6.21209 325.436 6.78475L255.997 46.8822C255.004 47.4562 254.2 48.8492 254.2 49.9945V52.3335C254.2 53.4789 255.004 54.8718 255.997 55.4458L325.436 95.5419C326.428 96.1159 328.037 96.1159 329.029 95.5419Z" fill="#17282F"/>
<path d="M398.47 48.9572L329.029 89.0546C328.038 89.6273 326.428 89.6273 325.436 89.0546L255.997 48.9572C255.004 48.3846 255.004 47.4564 255.997 46.8824L325.436 8.16959C326.429 7.59692 328.038 7.59692 329.029 8.16959L398.47 46.8824C399.461 47.455 399.461 48.3846 398.47 48.9572Z" fill="#33535F"/>
<path d="M327.23 89.4821V95.9695C327.88 95.9695 328.53 95.8312 329.028 95.5407L398.47 55.4405C399.465 54.8734 400.268 53.4763 400.268 52.3282V49.9905C400.268 48.9808 399.645 47.7773 398.802 47.1134C399.452 47.6805 399.341 48.4551 398.47 48.9531L329.028 89.0533C328.53 89.3438 327.88 89.4821 327.23 89.4821Z" fill="#263E47"/>
<path d="M329.029 76.0783L375.998 48.9571C376.99 48.3844 377.795 46.9915 377.795 45.8448V43.5057C377.795 42.3604 376.99 40.9675 375.998 40.3934L345.884 23.0061C344.891 22.4334 343.533 21.2231 342.851 20.3018L328.469 0.925369C327.786 0.00551605 326.428 -0.275284 325.435 0.297379L278.467 27.4172C277.474 27.9899 276.67 29.3842 276.67 30.5295L276.672 45.8448C276.672 46.9915 277.475 48.3844 278.468 48.9571L325.436 76.0783C326.428 76.651 328.038 76.651 329.029 76.0783Z" fill="#17282F"/>
<path d="M325.436 69.591L295.322 52.2009C294.845 51.9256 294.282 51.5024 293.751 51.0348C293.178 50.5299 292.643 49.9753 292.289 49.498L277.907 30.1216C277.224 29.2004 277.474 27.99 278.467 27.4174L325.435 0.297493C326.428 -0.275169 327.786 0.00563049 328.469 0.925491L342.851 20.302C343.533 21.2232 344.642 22.5414 345.635 23.1155L375.998 40.3936C376.99 40.9676 376.99 41.8958 375.998 42.4684L329.029 69.591C328.038 70.1637 326.429 70.1637 325.436 69.591Z" fill="#33535F"/>
<path d="M278.467 27.4172L325.435 0.297337C326.428 -0.275326 327.786 0.00547791 328.469 0.925335L342.851 20.3018C343.206 20.7818 343.746 21.3295 344.32 21.833L293.754 51.0305C293.181 50.5256 292.643 49.9751 292.289 49.4979L277.907 30.1214C277.224 29.2002 277.474 27.9899 278.467 27.4172Z" fill="#263E47"/>
<path d="M364.602 40.8706C363.439 40.1984 361.552 40.1984 360.388 40.8706C359.225 41.5429 359.225 42.6315 360.388 43.3037C361.552 43.9746 363.439 43.9746 364.602 43.3037C365.765 42.6315 365.765 41.5429 364.602 40.8706Z" fill="#26B6A6"/>
<path d="M356.175 45.7355C355.012 45.0647 353.126 45.0647 351.961 45.7355C350.798 46.4078 350.798 47.4978 351.961 48.1687C353.126 48.8409 355.012 48.8409 356.175 48.1687C357.338 47.4978 357.338 46.4078 356.175 45.7355Z" fill="#26B6A6"/>
<path d="M347.749 50.6017C346.585 49.9295 344.699 49.9295 343.536 50.6017C342.371 51.274 342.371 52.3626 343.536 53.0349C344.699 53.7071 346.585 53.7071 347.749 53.0349C348.912 52.3626 348.912 51.274 347.749 50.6017Z" fill="#17282F"/>
<path d="M339.322 55.468C338.159 54.7958 336.272 54.7958 335.109 55.468C333.945 56.1389 333.945 57.2289 335.109 57.9011C336.272 58.572 338.159 58.572 339.322 57.9011C340.486 57.2289 340.486 56.1389 339.322 55.468Z" fill="#17282F"/>
<path d="M358.282 37.2204C357.119 36.5481 355.232 36.5481 354.069 37.2204C352.904 37.8926 352.904 38.9813 354.069 39.6535C355.232 40.3258 357.119 40.3258 358.282 39.6535C359.446 38.9813 359.446 37.8926 358.282 37.2204Z" fill="#26B6A6"/>
<path d="M349.855 42.0865C348.692 41.4142 346.805 41.4142 345.642 42.0865C344.479 42.7587 344.479 43.8473 345.642 44.5196C346.805 45.1904 348.692 45.1904 349.855 44.5196C351.019 43.8473 351.019 42.7587 349.855 42.0865Z" fill="#17282F"/>
<path d="M341.429 46.9527C340.265 46.2805 338.378 46.2805 337.215 46.9527C336.052 47.6236 336.052 48.7136 337.215 49.3845C338.378 50.0567 340.265 50.0567 341.429 49.3845C342.593 48.7136 342.593 47.6236 341.429 46.9527Z" fill="#26B6A6"/>
<path d="M333.003 51.8176C331.838 51.1467 329.952 51.1467 328.789 51.8176C327.625 52.4898 327.625 53.5798 328.789 54.2507C329.952 54.9229 331.838 54.9229 333.003 54.2507C334.166 53.5798 334.166 52.4898 333.003 51.8176Z" fill="#17282F"/>
<path d="M351.963 33.5713C350.798 32.899 348.912 32.899 347.749 33.5713C346.585 34.2435 346.585 35.3321 347.749 36.0044C348.912 36.6766 350.798 36.6766 351.963 36.0044C353.126 35.3321 353.126 34.2435 351.963 33.5713Z" fill="#17282F"/>
<path d="M343.536 38.4375C342.373 37.7652 340.486 37.7652 339.322 38.4375C338.159 39.1084 338.159 40.1984 339.322 40.8706C340.486 41.5415 342.373 41.5415 343.536 40.8706C344.699 40.1984 344.699 39.1084 343.536 38.4375Z" fill="#26B6A6"/>
<path d="M335.109 43.3024C333.946 42.6315 332.059 42.6315 330.895 43.3024C329.732 43.9747 329.732 45.0647 330.895 45.7356C332.059 46.4078 333.946 46.4078 335.109 45.7356C336.272 45.0647 336.272 43.9747 335.109 43.3024Z" fill="#17282F"/>
<path d="M330.848 60.236C329.685 59.5638 327.798 59.5638 326.634 60.236C325.471 60.9083 325.471 61.9969 326.634 62.6691C327.798 63.3414 329.685 63.3414 330.848 62.6691C332.011 61.9969 332.011 60.9083 330.848 60.236Z" fill="#26B6A6"/>
<path d="M324.527 56.5871C323.364 55.9148 321.478 55.9148 320.315 56.5871C319.152 57.2593 319.152 58.348 320.315 59.0202C321.478 59.6925 323.364 59.6925 324.527 59.0202C325.692 58.348 325.692 57.2593 324.527 56.5871Z" fill="#17282F"/>
<path d="M326.682 48.1729C325.519 47.5006 323.633 47.5006 322.469 48.1729C321.305 48.8437 321.305 49.9337 322.469 50.606C323.633 51.2768 325.519 51.2768 326.682 50.606C327.845 49.9337 327.845 48.8437 326.682 48.1729Z" fill="#17282F"/>
<path d="M345.642 29.925C344.479 29.2541 342.592 29.2541 341.429 29.925C340.265 30.5972 340.265 31.6872 341.429 32.3581C342.592 33.0304 344.479 33.0304 345.642 32.3581C346.805 31.6872 346.805 30.5972 345.642 29.925Z" fill="#26B6A6"/>
<path d="M337.215 34.7912C336.052 34.119 334.166 34.119 333.003 34.7912C331.839 35.4635 331.839 36.5521 333.003 37.2243C334.166 37.8966 336.052 37.8966 337.215 37.2243C338.38 36.5521 338.38 35.4635 337.215 34.7912Z" fill="#17282F"/>
<path d="M328.79 39.6575C327.625 38.9852 325.739 38.9852 324.576 39.6575C323.413 40.3284 323.413 41.4183 324.576 42.0906C325.739 42.7615 327.625 42.7615 328.79 42.0906C329.953 41.4183 329.953 40.3284 328.79 39.6575Z" fill="#26B6A6"/>
<path d="M320.363 44.5224C319.199 43.8515 317.312 43.8515 316.149 44.5224C314.986 45.1946 314.986 46.2847 316.149 46.9555C317.312 47.6278 319.199 47.6278 320.363 46.9555C321.526 46.2847 321.526 45.1946 320.363 44.5224Z" fill="#17282F"/>
<path d="M318.208 52.9409C317.045 52.27 315.159 52.27 313.994 52.9409C312.831 53.6131 312.831 54.7017 313.994 55.374C315.159 56.0462 317.045 56.0462 318.208 55.374C319.372 54.7017 319.372 53.6131 318.208 52.9409Z" fill="#26B6A6"/>
<path d="M311.888 49.2917C310.725 48.6195 308.838 48.6195 307.675 49.2917C306.512 49.9626 306.512 51.0526 307.675 51.7249C308.838 52.3957 310.725 52.3957 311.888 51.7249C313.052 51.0526 313.052 49.9626 311.888 49.2917Z" fill="#17282F"/>
<path d="M327.133 70.0198V76.4934C327.811 76.5072 328.502 76.3827 329.028 76.0784L375.996 48.953C376.991 48.3859 377.793 46.9888 377.793 45.8407V43.503C377.793 42.4933 377.171 41.2898 376.327 40.6259C376.977 41.193 376.867 41.9676 375.996 42.4656L329.028 69.591C328.502 69.8953 327.811 70.0336 327.133 70.0198Z" fill="#263E47"/>
<path d="M336.639 19.4925L336.597 19.4358C336.144 18.8217 335.239 18.6322 334.578 19.0153L293.705 42.6176C293.043 42.9993 292.877 43.8058 293.333 44.4172L293.376 44.4753C293.833 45.0866 294.738 45.2748 295.401 44.8916L336.264 21.2963C336.925 20.9145 337.092 20.1067 336.639 19.4925Z" fill="#17282F"/>
<path d="M336.639 19.4928L336.597 19.436C336.144 18.8219 335.239 18.6324 334.578 19.0155L304.19 36.5619L305.886 38.8374L336.264 21.2965C336.925 20.9147 337.092 20.1069 336.639 19.4928Z" fill="#26B6A6"/>
<path d="M333.26 14.9571L333.218 14.9004C332.765 14.2863 331.86 14.0981 331.199 14.4799L290.325 38.0822C289.664 38.4639 289.498 39.2704 289.954 39.8831L289.997 39.9399C290.454 40.5527 291.36 40.7394 292.022 40.3576L332.884 16.7609C333.546 16.3791 333.713 15.5699 333.26 14.9571Z" fill="#17282F"/>
<path d="M333.26 14.9569L333.218 14.9002C332.765 14.286 331.86 14.0979 331.199 14.4783L321.039 20.3432L322.735 22.6187L332.884 16.7606C333.546 16.3774 333.713 15.5696 333.26 14.9569Z" fill="#26B6A6"/>
<path d="M329.881 10.4199L329.84 10.3645C329.386 9.75038 328.482 9.56225 327.82 9.94264L286.946 33.5463C286.285 33.9281 286.119 34.7345 286.576 35.3473L286.619 35.404C287.075 36.0168 287.981 36.2035 288.642 35.8217L329.505 12.225C330.167 11.8418 330.335 11.034 329.881 10.4199Z" fill="#17282F"/>
<path d="M329.881 10.42L329.84 10.3647C329.386 9.75057 328.481 9.56105 327.819 9.94145L306.53 22.197L308.226 24.4724L329.505 12.2224C330.166 11.842 330.335 11.0342 329.881 10.42Z" fill="#26B6A6"/>
<path d="M326.502 5.88437L326.461 5.82906C326.007 5.2149 325.103 5.02539 324.44 5.40855L283.568 29.0108C282.907 29.3926 282.741 30.199 283.197 30.8104L283.24 30.8685C283.696 31.4813 284.602 31.668 285.263 31.2848L326.126 7.68948C326.787 7.3077 326.956 6.49992 326.502 5.88437Z" fill="#17282F"/>
<path d="M326.502 5.88435L326.461 5.82903C326.007 5.21487 325.103 5.02536 324.44 5.40852L287.339 26.8308L289.035 29.1062L326.126 7.68945C326.787 7.30768 326.956 6.49989 326.502 5.88435Z" fill="#26B6A6"/>
<path d="M399.92 385.88L386.06 377.878C385.376 377.48 384.386 377.254 383.395 377.257C382.417 377.254 381.442 377.483 380.763 377.878L298.439 425.415C297.845 425.759 297.2 425.92 296.575 425.92C295.594 425.918 294.665 425.53 293.975 424.868C293.283 424.209 292.831 423.258 292.832 422.177V354.077H294.216V422.177C294.217 422.874 294.495 423.448 294.932 423.87C295.369 424.29 295.965 424.538 296.575 424.536C296.965 424.536 297.362 424.438 297.749 424.217L380.071 376.68C381.031 376.128 382.212 375.877 383.395 375.874C384.584 375.877 385.779 376.123 386.751 376.68L400.612 384.682L399.92 385.88Z" fill="#26B6A6"/>
<path d="M405.538 382.637L386.06 371.39C385.379 370.993 384.396 370.767 383.411 370.77C382.426 370.767 381.443 370.993 380.763 371.39L292.823 422.17C292.227 422.514 291.582 422.676 290.957 422.676C289.977 422.675 289.047 422.286 288.357 421.625C287.666 420.965 287.213 420.013 287.215 418.933V354.077H288.598V418.933C288.599 419.63 288.877 420.204 289.314 420.626C289.751 421.045 290.347 421.293 290.957 421.293C291.347 421.291 291.744 421.195 292.13 420.972L380.071 370.192C381.038 369.638 382.226 369.388 383.411 369.387C384.598 369.388 385.786 369.637 386.751 370.192L406.23 381.439L405.538 382.637Z" fill="#26B6A6"/>
<path d="M411.155 379.382L386.061 364.901C385.379 364.504 384.394 364.278 383.407 364.281C382.424 364.278 381.443 364.505 380.763 364.902L287.204 418.926C286.609 419.27 285.964 419.432 285.339 419.432C284.359 419.431 283.429 419.042 282.739 418.381C282.048 417.721 281.595 416.769 281.597 415.689V354.464H282.98V415.689C282.981 416.386 283.259 416.96 283.696 417.382C284.133 417.801 284.729 418.049 285.339 418.049C285.729 418.048 286.126 417.951 286.512 417.728L380.071 363.704C381.036 363.151 382.222 362.9 383.407 362.898C384.595 362.9 385.784 363.148 386.753 363.703L411.846 378.184L411.155 379.382Z" fill="#26B6A6"/>
<path d="M416.793 376.149L386.061 358.413C385.379 358.016 384.397 357.791 383.411 357.792C382.426 357.791 381.443 358.016 380.763 358.413L281.586 415.682C280.991 416.027 280.347 416.189 279.721 416.187C278.741 416.187 277.811 415.799 277.121 415.136C276.43 414.478 275.978 413.526 275.979 412.444V354.464H277.362V412.444C277.363 413.141 277.641 413.717 278.078 414.139C278.515 414.558 279.112 414.805 279.721 414.804C280.111 414.804 280.508 414.707 280.894 414.484L380.071 357.215C381.038 356.662 382.226 356.412 383.411 356.41C384.598 356.412 385.786 356.661 386.753 357.215L417.483 374.951L416.793 376.149Z" fill="#26B6A6"/>
<path d="M493.146 95.0495L582.663 146.74C584.317 147.694 585.657 150.017 585.657 151.927V398.043C585.657 399.953 584.317 402.276 582.663 403.23L493.145 454.92C491.492 455.875 488.811 455.875 487.157 454.92L397.643 403.23C395.99 402.276 394.648 399.953 394.648 398.043V151.927C394.648 150.017 395.99 147.694 397.643 146.74L487.158 95.0495C488.812 94.095 491.493 94.095 493.146 95.0495Z" fill="#263E47"/>
<path d="M394.653 151.922V398.042C394.653 399.951 395.994 402.275 397.64 403.229L487.163 454.921C487.979 455.405 489.071 455.64 490.15 455.64V202.604C489.071 202.604 487.993 202.355 487.163 201.884L397.64 150.192L396.824 149.515L395.759 148.629C395.081 149.653 394.653 150.843 394.653 151.922Z" fill="#17282F"/>
<path d="M571.428 176.149L504.382 214.863C502.728 215.819 501.387 218.141 501.388 220.05L501.389 245.575C501.389 247.485 502.729 248.259 504.383 247.304L571.427 208.59C573.08 207.636 574.421 205.313 574.421 203.403L574.422 177.878C574.422 175.969 573.082 175.194 571.428 176.149Z" fill="#33535F"/>
<path d="M568.803 187.398C568.803 189.189 567.463 191.414 565.809 192.37L510 224.596C508.347 225.551 507.006 224.872 507.006 223.081C507.006 221.29 508.347 219.063 510 218.108L565.809 185.881C567.463 184.927 568.803 185.605 568.803 187.398Z" fill="#26B6A6"/>
<path d="M568.803 200.374C568.803 202.165 567.463 204.39 565.809 205.346L510 237.572C508.347 238.528 507.006 237.848 507.006 236.057C507.006 234.266 508.347 232.039 510 231.084L565.809 198.858C567.463 197.903 568.803 198.581 568.803 200.374Z" fill="#17282F"/>
<path d="M565.809 198.858L535.096 216.594L535.095 223.081L565.809 205.346C567.463 204.391 568.803 202.165 568.803 200.374C568.803 198.581 567.463 197.903 565.809 198.858Z" fill="#26B6A6"/>
<path d="M571.428 221.565L504.382 260.279C502.728 261.235 501.387 263.557 501.388 265.466L501.389 290.991C501.389 292.901 502.729 293.675 504.383 292.72L571.427 254.006C573.08 253.052 574.421 250.729 574.421 248.819L574.422 223.294C574.422 221.385 573.082 220.61 571.428 221.565Z" fill="#33535F"/>
<path d="M568.803 232.813C568.803 234.605 567.463 236.83 565.809 237.786L510 270.012C508.347 270.967 507.006 270.288 507.006 268.497C507.006 266.706 508.347 264.479 510 263.524L565.809 231.297C567.463 230.343 568.803 231.021 568.803 232.813Z" fill="#26B6A6"/>
<path d="M568.803 245.79C568.803 247.581 567.463 249.808 565.809 250.762L510 282.988C508.347 283.944 507.006 283.264 507.006 281.473C507.006 279.682 508.347 277.455 510 276.5L565.809 244.275C567.463 243.319 568.803 243.997 568.803 245.79Z" fill="#17282F"/>
<path d="M565.809 244.275L518.242 271.742L518.241 278.229L565.809 250.762C567.463 249.808 568.803 247.581 568.803 245.79C568.803 243.997 567.463 243.319 565.809 244.275Z" fill="#26B6A6"/>
<path d="M571.428 266.982L504.382 305.695C502.728 306.651 501.387 308.974 501.388 310.882L501.389 336.407C501.389 338.318 502.729 339.092 504.383 338.136L571.427 299.422C573.08 298.468 574.421 296.145 574.421 294.235L574.422 268.712C574.422 266.801 573.082 266.027 571.428 266.982Z" fill="#33535F"/>
<path d="M568.803 278.23C568.803 280.021 567.463 282.248 565.809 283.202L510 315.428C508.347 316.384 507.006 315.704 507.006 313.913C507.006 312.122 508.347 309.895 510 308.94L565.809 276.715C567.463 275.759 568.803 276.438 568.803 278.23Z" fill="#26B6A6"/>
<path d="M568.803 291.206C568.803 292.997 567.463 295.224 565.809 296.178L510 328.405C508.347 329.36 507.006 328.682 507.006 326.889C507.006 325.098 508.347 322.871 510 321.916L565.809 289.691C567.463 288.735 568.803 289.414 568.803 291.206Z" fill="#17282F"/>
<path d="M565.809 289.691L546.332 300.937L546.331 307.424L565.809 296.179C567.463 295.224 568.803 292.997 568.803 291.206C568.803 289.414 567.463 288.735 565.809 289.691Z" fill="#26B6A6"/>
<path d="M571.428 312.398L504.382 351.113C502.728 352.067 501.387 354.39 501.388 356.3L501.389 381.823C501.389 383.734 502.729 384.508 504.383 383.552L571.427 344.838C573.08 343.884 574.421 341.561 574.421 339.651L574.422 314.127C574.422 312.217 573.082 311.443 571.428 312.398Z" fill="#33535F"/>
<path d="M568.803 323.646C568.803 325.437 567.463 327.664 565.809 328.618L510 360.844C508.347 361.799 507.006 361.122 507.006 359.329C507.006 357.538 508.347 355.311 510 354.356L565.809 322.131C567.463 321.175 568.803 321.854 568.803 323.646Z" fill="#26B6A6"/>
<path d="M568.803 336.622C568.803 338.413 567.463 340.64 565.809 341.594L510 373.821C508.347 374.776 507.006 374.098 507.006 372.305C507.006 370.514 508.347 368.288 510 367.332L565.809 335.107C567.463 334.151 568.803 334.83 568.803 336.622Z" fill="#17282F"/>
<path d="M565.809 335.107L535.096 352.842L535.095 359.329L565.809 341.595C567.463 340.64 568.803 338.413 568.803 336.622C568.803 334.831 567.463 334.151 565.809 335.107Z" fill="#26B6A6"/>
<path d="M571.428 357.814L504.382 396.529C502.728 397.483 501.387 399.806 501.388 401.716L501.389 427.239C501.389 429.15 502.729 429.924 504.383 428.968L571.427 390.254C573.08 389.3 574.421 386.977 574.421 385.067L574.422 359.544C574.422 357.633 573.082 356.859 571.428 357.814Z" fill="#33535F"/>
<path d="M568.803 369.061C568.803 370.853 567.463 373.08 565.809 374.034L510 406.261C508.347 407.215 507.006 406.538 507.006 404.745C507.006 402.954 508.347 400.728 510 399.772L565.809 367.547C567.463 366.591 568.803 367.27 568.803 369.061Z" fill="#26B6A6"/>
<path d="M568.803 382.038C568.803 383.829 567.463 386.056 565.809 387.01L510 419.237C508.347 420.192 507.006 419.514 507.006 417.721C507.006 415.93 508.347 413.704 510 412.748L565.809 380.523C567.463 379.567 568.803 380.246 568.803 382.038Z" fill="#17282F"/>
<path d="M565.809 380.523L523.859 404.746V411.232L565.809 387.01C567.463 386.056 568.803 383.829 568.803 382.038C568.803 380.246 567.463 379.567 565.809 380.523Z" fill="#26B6A6"/>
<path d="M476.108 218.229C473.005 216.429 470.49 218.068 470.49 221.887L470.489 370.269C470.489 374.088 473.005 378.643 476.107 380.443C479.21 382.241 481.725 380.603 481.725 376.784L481.726 228.401C481.726 224.582 479.211 220.027 476.108 218.229Z" fill="#263E47"/>
<path d="M476.107 377.159C474.556 376.263 473.298 373.989 473.298 372.078L473.299 223.282C473.299 221.371 474.557 220.55 476.108 221.445C477.66 222.341 478.917 224.615 478.917 226.525L478.916 375.322C478.916 377.232 477.659 378.054 476.107 377.159Z" fill="#17282F"/>
<path d="M476.107 377.159C474.556 376.263 473.298 373.989 473.298 372.078L473.299 300.937L478.917 304.181L478.916 375.322C478.916 377.232 477.659 378.054 476.107 377.159Z" fill="#26B6A6"/>
<path d="M459.254 208.496C456.151 206.698 453.636 208.336 453.636 212.156V360.537C453.636 364.357 456.15 368.912 459.254 370.71C462.356 372.51 464.871 370.872 464.871 367.052L464.872 218.67C464.872 214.851 462.357 210.296 459.254 208.496Z" fill="#263E47"/>
<path d="M459.254 367.427C457.702 366.53 456.445 364.256 456.445 362.346V213.551C456.445 211.64 457.703 210.817 459.255 211.714C460.805 212.61 462.064 214.884 462.064 216.794L462.063 365.591C462.063 367.501 460.805 368.323 459.254 367.427Z" fill="#26B6A6"/>
<path d="M442.4 198.765C439.298 196.967 436.782 198.605 436.782 202.424L436.781 350.806C436.781 354.626 439.297 359.18 442.399 360.979C445.502 362.779 448.018 361.14 448.018 357.321V208.939C448.018 205.118 445.504 200.563 442.4 198.765Z" fill="#263E47"/>
<path d="M442.4 357.695C440.848 356.799 439.59 354.525 439.591 352.615V203.818C439.591 201.908 440.848 201.086 442.4 201.982C443.952 202.877 445.209 205.153 445.209 207.062V355.858C445.209 357.769 443.95 358.59 442.4 357.695Z" fill="#17282F"/>
<path d="M442.4 357.695C440.848 356.799 439.59 354.525 439.591 352.615V237.678L445.209 240.922V355.858C445.209 357.769 443.95 358.59 442.4 357.695Z" fill="#26B6A6"/>
<path d="M425.546 189.034C422.443 187.234 419.929 188.872 419.929 192.693L419.927 341.074C419.927 344.894 422.443 349.449 425.545 351.248C428.649 353.046 431.163 351.409 431.163 347.59L431.164 199.206C431.164 195.387 428.649 190.832 425.546 189.034Z" fill="#263E47"/>
<path d="M425.545 347.963C423.995 347.068 422.736 344.792 422.736 342.884L422.738 194.087C422.738 192.177 423.995 191.355 425.547 192.25C427.098 193.146 428.355 195.42 428.355 197.331L428.354 346.127C428.354 348.038 427.097 348.859 425.545 347.963Z" fill="#17282F"/>
<path d="M425.545 347.963C423.995 347.068 422.736 344.792 422.736 342.884L422.738 317.769L428.355 321.013L428.354 346.127C428.354 348.038 427.097 348.859 425.545 347.963Z" fill="#26B6A6"/>
<path d="M408.693 179.301C405.589 177.503 403.074 179.141 403.074 182.962V331.342C403.074 335.162 405.588 339.717 408.692 341.516C411.794 343.315 414.309 341.677 414.309 337.857L414.311 189.475C414.311 185.656 411.795 181.101 408.693 179.301Z" fill="#263E47"/>
<path d="M408.692 338.232C407.14 337.337 405.883 335.061 405.883 333.151V184.354C405.883 182.445 407.141 181.624 408.693 182.519C410.243 183.415 411.502 185.689 411.502 187.599L411.501 336.396C411.501 338.305 410.243 339.128 408.692 338.232Z" fill="#17282F"/>
<path d="M408.692 338.232C407.14 337.337 405.883 335.061 405.883 333.151L405.884 255.521L411.502 258.764L411.501 336.396C411.501 338.305 410.243 339.128 408.692 338.232Z" fill="#26B6A6"/>
<path d="M479.33 398.497L405.469 355.846C404.146 355.082 403.074 355.702 403.074 357.229V384.137C403.074 385.664 404.146 387.522 405.469 388.287L479.33 430.937C480.652 431.7 481.725 431.082 481.725 429.553V402.646C481.725 401.118 480.652 399.26 479.33 398.497Z" fill="#263E47"/>
<path d="M476.294 406.475C476.293 408.267 474.952 408.945 473.298 407.99L411.502 372.294C409.848 371.34 408.506 369.113 408.506 367.321C408.506 365.53 409.846 364.852 411.501 365.807L473.3 401.503C474.954 402.457 476.294 404.683 476.294 406.475Z" fill="#17282F"/>
<path d="M476.294 406.475C476.293 408.267 474.952 408.944 473.298 407.989L428.357 382.024L428.355 375.536L473.3 401.501C474.954 402.457 476.294 404.683 476.294 406.475Z" fill="#26B6A6"/>
<path d="M476.294 419.452C476.293 421.243 474.952 421.921 473.298 420.966L411.502 385.27C409.848 384.316 408.506 382.089 408.506 380.298C408.506 378.506 409.846 377.829 411.501 378.783L473.3 414.479C474.954 415.433 476.294 417.66 476.294 419.452Z" fill="#17282F"/>
<path d="M476.294 419.452C476.293 421.243 474.952 421.921 473.298 420.966L456.445 411.234L456.443 404.746L473.3 414.479C474.954 415.433 476.294 417.66 476.294 419.452Z" fill="#26B6A6"/>
<path d="M397.643 146.74L487.159 95.0496C488.813 94.0951 491.494 94.0951 493.148 95.0496L582.664 146.74C584.317 147.694 584.317 149.242 582.664 150.198L493.145 201.888C491.492 202.843 488.811 202.843 487.157 201.888L397.643 150.198C395.99 149.244 395.99 147.694 397.643 146.74Z" fill="#33535F"/>
<path d="M491.949 189.604L561.389 149.506C562.382 148.934 563.186 147.539 563.186 146.394V144.055C563.186 142.91 562.382 141.517 561.39 140.943L491.95 100.847C490.958 100.273 489.349 100.273 488.357 100.847L418.916 140.944C417.925 141.517 417.12 142.91 417.12 144.056V146.394C417.12 147.539 417.925 148.934 418.916 149.506L488.356 189.604C489.349 190.176 490.957 190.176 491.949 189.604Z" fill="#17282F"/>
<path d="M561.39 143.017L491.949 183.115C490.958 183.689 489.349 183.689 488.356 183.115L418.916 143.019C417.925 142.445 417.925 141.517 418.916 140.944L488.357 102.23C489.349 101.657 490.958 101.657 491.95 102.23L561.39 140.943C562.382 141.517 562.382 142.445 561.39 143.017Z" fill="#33535F"/>
<path d="M490.15 183.542V190.03C490.8 190.03 491.45 189.891 491.948 189.601L561.39 149.501C562.385 148.934 563.188 147.537 563.188 146.389V144.051C563.188 143.041 562.565 141.838 561.721 141.174C562.371 141.741 562.261 142.515 561.39 143.013L491.948 183.114C491.45 183.404 490.8 183.542 490.15 183.542Z" fill="#263E47"/>
<path d="M491.949 170.139L538.918 143.018C539.91 142.445 540.715 141.052 540.715 139.905V137.568C540.715 136.422 539.91 135.028 538.918 134.455L508.804 117.067C507.812 116.494 506.454 115.284 505.771 114.364L491.389 94.9858C490.706 94.066 489.347 93.7852 488.356 94.3578L441.388 121.479C440.395 122.052 439.591 123.445 439.591 124.591V139.907C439.591 141.052 440.396 142.445 441.389 143.019L488.356 170.139C489.349 170.713 490.957 170.713 491.949 170.139Z" fill="#17282F"/>
<path d="M488.356 163.651L458.243 146.263C457.764 145.986 457.203 145.563 456.672 145.095C456.099 144.592 455.564 144.036 455.21 143.558L440.828 124.182C440.144 123.262 440.395 122.052 441.388 121.479L488.356 94.3578C489.348 93.7851 490.706 94.0659 491.389 94.9858L505.771 114.364C506.454 115.283 507.563 116.603 508.555 117.176L538.918 134.455C539.91 135.028 539.91 135.957 538.918 136.53L491.95 163.651C490.958 164.224 489.349 164.224 488.356 163.651Z" fill="#33535F"/>
<path d="M441.388 121.479L488.355 94.3579C489.348 93.7852 490.706 94.066 491.389 94.9859L505.771 114.364C506.127 114.842 506.666 115.39 507.24 115.894L456.674 145.091C456.102 144.586 455.564 144.037 455.21 143.558L440.828 124.182C440.144 123.262 440.395 122.052 441.388 121.479Z" fill="#263E47"/>
<path d="M527.522 134.931C526.359 134.259 524.472 134.259 523.308 134.931C522.145 135.603 522.145 136.692 523.308 137.364C524.472 138.036 526.359 138.036 527.522 137.364C528.685 136.692 528.685 135.603 527.522 134.931Z" fill="#26B6A6"/>
<path d="M519.095 139.797C517.932 139.125 516.045 139.125 514.882 139.797C513.719 140.468 513.719 141.558 514.882 142.23C516.045 142.901 517.932 142.901 519.095 142.23C520.259 141.558 520.259 140.468 519.095 139.797Z" fill="#26B6A6"/>
<path d="M510.669 144.662C509.505 143.991 507.619 143.991 506.455 144.662C505.292 145.335 505.292 146.425 506.455 147.095C507.619 147.768 509.505 147.768 510.669 147.095C511.832 146.425 511.832 145.335 510.669 144.662Z" fill="#17282F"/>
<path d="M502.242 149.529C501.079 148.856 499.193 148.856 498.029 149.529C496.865 150.201 496.865 151.289 498.029 151.962C499.193 152.634 501.079 152.634 502.242 151.962C503.406 151.289 503.406 150.201 502.242 149.529Z" fill="#17282F"/>
<path d="M521.202 131.282C520.039 130.61 518.152 130.61 516.989 131.282C515.825 131.953 515.825 133.043 516.989 133.715C518.152 134.386 520.039 134.386 521.202 133.715C522.366 133.043 522.366 131.953 521.202 131.282Z" fill="#26B6A6"/>
<path d="M512.776 136.147C511.612 135.476 509.726 135.476 508.562 136.147C507.399 136.819 507.399 137.909 508.562 138.58C509.726 139.253 511.612 139.253 512.776 138.58C513.939 137.909 513.939 136.819 512.776 136.147Z" fill="#17282F"/>
<path d="M504.349 141.013C503.185 140.341 501.299 140.341 500.136 141.013C498.972 141.686 498.972 142.774 500.136 143.446C501.299 144.119 503.185 144.119 504.349 143.446C505.512 142.774 505.512 141.686 504.349 141.013Z" fill="#26B6A6"/>
<path d="M495.922 145.879C494.759 145.207 492.873 145.207 491.709 145.879C490.545 146.552 490.545 147.64 491.709 148.313C492.873 148.983 494.759 148.983 495.922 148.313C497.086 147.64 497.086 146.552 495.922 145.879Z" fill="#17282F"/>
<path d="M514.882 127.632C513.719 126.961 511.832 126.961 510.669 127.632C509.505 128.304 509.505 129.394 510.669 130.065C511.832 130.737 513.719 130.737 514.882 130.065C516.046 129.394 516.046 128.304 514.882 127.632Z" fill="#17282F"/>
<path d="M506.456 132.498C505.292 131.826 503.406 131.826 502.242 132.498C501.079 133.17 501.079 134.259 502.242 134.931C503.406 135.603 505.292 135.603 506.456 134.931C507.619 134.259 507.619 133.17 506.456 132.498Z" fill="#26B6A6"/>
<path d="M498.029 137.364C496.866 136.692 494.979 136.692 493.816 137.364C492.652 138.037 492.652 139.125 493.816 139.797C494.979 140.468 496.866 140.468 498.029 139.797C499.193 139.125 499.193 138.037 498.029 137.364Z" fill="#17282F"/>
<path d="M493.768 154.298C492.605 153.626 490.718 153.626 489.554 154.298C488.391 154.969 488.391 156.059 489.554 156.73C490.718 157.402 492.605 157.402 493.768 156.73C494.932 156.059 494.932 154.969 493.768 154.298Z" fill="#26B6A6"/>
<path d="M487.449 150.648C486.285 149.977 484.398 149.977 483.235 150.648C482.071 151.32 482.071 152.409 483.235 153.081C484.398 153.753 486.285 153.753 487.449 153.081C488.612 152.409 488.612 151.32 487.449 150.648Z" fill="#17282F"/>
<path d="M489.603 142.233C488.439 141.561 486.553 141.561 485.389 142.233C484.226 142.906 484.226 143.994 485.389 144.666C486.553 145.339 488.439 145.339 489.603 144.666C490.766 143.994 490.766 142.906 489.603 142.233Z" fill="#17282F"/>
<path d="M508.563 123.987C507.399 123.315 505.513 123.315 504.349 123.987C503.185 124.658 503.185 125.748 504.349 126.42C505.513 127.091 507.399 127.091 508.563 126.42C509.726 125.748 509.726 124.658 508.563 123.987Z" fill="#26B6A6"/>
<path d="M500.136 128.852C498.973 128.181 497.086 128.181 495.922 128.852C494.759 129.524 494.759 130.614 495.922 131.285C497.086 131.957 498.973 131.957 500.136 131.285C501.299 130.614 501.299 129.524 500.136 128.852Z" fill="#17282F"/>
<path d="M491.709 133.718C490.546 133.047 488.66 133.047 487.496 133.718C486.332 134.39 486.332 135.479 487.496 136.151C488.66 136.823 490.546 136.823 491.709 136.151C492.873 135.479 492.873 134.39 491.709 133.718Z" fill="#26B6A6"/>
<path d="M483.283 138.584C482.12 137.912 480.233 137.912 479.069 138.584C477.906 139.256 477.906 140.345 479.069 141.017C480.233 141.688 482.12 141.688 483.283 141.017C484.446 140.345 484.446 139.256 483.283 138.584Z" fill="#17282F"/>
<path d="M481.128 147.003C479.965 146.33 478.079 146.33 476.915 147.003C475.752 147.674 475.752 148.764 476.915 149.436C478.079 150.107 479.965 150.107 481.128 149.436C482.292 148.764 482.292 147.674 481.128 147.003Z" fill="#26B6A6"/>
<path d="M474.808 143.352C473.645 142.68 471.759 142.68 470.595 143.352C469.432 144.024 469.432 145.113 470.595 145.785C471.759 146.458 473.645 146.458 474.808 145.785C475.972 145.113 475.972 144.024 474.808 143.352Z" fill="#17282F"/>
<path d="M490.053 164.08V170.554C490.731 170.568 491.423 170.443 491.948 170.139L538.916 143.014C539.911 142.446 540.714 141.049 540.714 139.901V137.564C540.714 136.554 540.091 135.35 539.247 134.686C539.897 135.254 539.787 136.028 538.916 136.526L491.948 163.652C491.423 163.956 490.731 164.094 490.053 164.08Z" fill="#263E47"/>
<path d="M499.559 113.553L499.518 113.496C499.064 112.882 498.159 112.694 497.498 113.076L456.624 136.678C455.963 137.06 455.797 137.866 456.254 138.479L456.297 138.536C456.753 139.149 457.659 139.335 458.321 138.954L499.183 115.357C499.845 114.975 500.013 114.167 499.559 113.553Z" fill="#17282F"/>
<path d="M499.559 113.553L499.518 113.496C499.064 112.882 498.159 112.694 497.498 113.076L467.11 130.622L468.806 132.898L499.183 115.357C499.845 114.975 500.013 114.167 499.559 113.553Z" fill="#26B6A6"/>
<path d="M496.18 109.017L496.139 108.961C495.685 108.347 494.78 108.158 494.119 108.54L453.246 132.142C452.585 132.524 452.419 133.331 452.875 133.943L452.918 134C453.374 134.613 454.28 134.8 454.941 134.418L495.805 110.821C496.466 110.439 496.634 109.632 496.18 109.017Z" fill="#17282F"/>
<path d="M496.18 109.017L496.139 108.961C495.685 108.347 494.78 108.158 494.119 108.54L483.959 114.404L485.655 116.679L495.805 110.821C496.466 110.439 496.634 109.632 496.18 109.017Z" fill="#26B6A6"/>
<path d="M492.801 104.482L492.76 104.425C492.306 103.811 491.402 103.623 490.74 104.005L449.867 127.607C449.206 127.989 449.04 128.795 449.496 129.408L449.539 129.465C449.996 130.077 450.902 130.264 451.563 129.882L492.425 106.286C493.087 105.904 493.255 105.096 492.801 104.482Z" fill="#17282F"/>
<path d="M492.801 104.482L492.76 104.425C492.306 103.811 491.401 103.621 490.739 104.003L469.45 116.257L471.146 118.533L492.425 106.284C493.087 105.902 493.255 105.096 492.801 104.482Z" fill="#26B6A6"/>
<path d="M489.422 99.9461L489.381 99.8894C488.927 99.2753 488.022 99.0871 487.361 99.4689L446.488 123.071C445.827 123.453 445.66 124.259 446.118 124.872L446.159 124.929C446.616 125.542 447.523 125.728 448.184 125.347L489.047 101.75C489.708 101.368 489.877 100.56 489.422 99.9461Z" fill="#17282F"/>
<path d="M489.422 99.9461L489.381 99.8894C488.927 99.2752 488.022 99.0871 487.361 99.4689L450.259 120.893L451.956 123.168L489.047 101.75C489.708 101.368 489.877 100.56 489.422 99.9461Z" fill="#26B6A6"/>
<path d="M299.933 364.858V440.614C299.933 441.186 299.531 441.883 299.034 442.17L226.429 484.042C225.933 484.328 225.129 484.328 224.633 484.042L222.217 482.646C221.72 482.36 221.318 481.663 221.318 481.09V405.334C221.318 404.762 221.782 404.297 222.355 404.297L298.896 363.82C299.468 363.82 299.933 364.285 299.933 364.858Z" fill="#FAFAF9"/>
<path d="M222.355 404.297H224.494C225.067 404.297 225.532 404.761 225.532 405.334L225.53 483.523C225.53 484.096 225.129 484.328 224.633 484.042L222.217 482.646C221.72 482.36 221.318 481.663 221.318 481.09V405.334C221.318 404.761 221.782 404.297 222.355 404.297Z" fill="#F3F2F1"/>
<path d="M155.343 278.051V353.807C155.343 354.38 154.941 355.076 154.445 355.362L78.975 398.906C78.4785 399.193 77.6736 399.193 77.1785 398.906L74.761 397.511C74.2658 397.224 73.8634 396.527 73.8634 395.955V320.198C73.8634 319.626 74.3281 319.161 74.9006 319.161L154.306 277.014C154.878 277.014 155.343 277.478 155.343 278.051Z" fill="#DADBD8"/>
<path d="M74.9008 319.161H77.0404C77.6129 319.161 78.0776 319.626 78.0776 320.198L78.0763 398.388C78.0763 398.96 77.6738 399.193 77.1787 398.906L74.7611 397.511C74.266 397.224 73.8635 396.527 73.8635 395.954V320.198C73.8635 319.626 74.3282 319.161 74.9008 319.161Z" fill="#E7E8E5"/>
<path d="M307.011 362.481V361.765C307.011 360.618 306.208 359.225 305.215 358.652L152.912 270.706C151.919 270.133 150.31 270.133 149.319 270.706L68.6425 317.292C67.6508 317.865 66.8459 319.258 66.8459 320.404V321.12C66.8459 322.266 67.6508 323.659 68.6425 324.232L220.946 412.178C221.939 412.751 223.547 412.751 224.539 412.178L305.215 365.594C306.207 365.02 307.011 363.627 307.011 362.481Z" fill="#F3F2F1"/>
<path d="M222.742 407.745V412.614C223.392 412.614 224.042 412.462 224.54 412.185L305.212 365.598C306.208 365.017 307.01 363.634 307.01 362.486V361.766C307.01 360.756 306.388 359.539 305.544 358.889C306.194 359.442 306.083 360.217 305.212 360.729L224.54 407.316C224.042 407.607 223.392 407.745 222.742 407.745Z" fill="#E7E8E5"/>
<path d="M305.215 360.727L224.539 407.312C223.547 407.885 221.938 407.885 220.945 407.312L68.6423 319.367C67.6507 318.793 67.6507 317.865 68.6423 317.292L149.318 270.706C150.31 270.133 151.919 270.133 152.912 270.706L305.215 358.653C306.208 359.225 306.208 360.155 305.215 360.727Z" fill="#FAFAF9"/>
<path d="M175.188 328.203L129.579 301.814C128.764 301.343 127.442 301.343 126.627 301.814L112.186 310.249C111.371 310.719 111.371 311.483 112.186 311.953L157.796 338.342C158.611 338.813 159.933 338.813 160.748 338.342L175.188 329.907C176.004 329.437 176.004 328.673 175.188 328.203Z" fill="#E7E8E5"/>
<path d="M167.103 311.833L167.144 311.812L171.978 309.016C172.639 308.633 172.639 308.014 171.977 307.632L134.076 285.742C133.415 285.36 133.415 284.741 134.076 284.359L134.462 284.136C135.123 283.754 136.196 283.754 136.857 284.136L173.689 305.403C174.35 305.787 174.964 305.818 174.983 305.47C174.996 305.255 174.985 305.044 174.945 304.84L172.856 294.025C172.711 293.275 173.132 292.359 173.794 291.98L174.173 291.763C174.837 291.384 175.491 291.684 175.635 292.435L178.043 304.993C178.13 305.439 178.133 305.912 178.065 306.385C177.955 307.142 178.225 308.023 178.888 308.406L201.878 321.681C202.539 322.063 202.539 322.683 201.878 323.065L201.485 323.291C200.824 323.673 199.752 323.673 199.09 323.29L177.119 310.602C176.458 310.22 175.878 309.939 175.828 309.976L175.733 310.041L168.26 314.356C167.599 314.737 166.526 314.74 165.864 314.36C162.586 312.476 153.508 307.244 150.23 305.356C149.569 304.975 149.352 304.486 149.746 304.264C150.14 304.042 151.017 304.131 151.706 304.463L165.815 311.255C166.504 311.585 167.081 311.845 167.103 311.833Z" fill="#E7E8E5"/>
<path d="M126.821 298.32L113.159 306.208C112.345 306.679 111.684 307.776 111.684 308.66C111.684 309.542 112.345 310.64 113.159 311.111L157.279 336.587C158.094 337.058 159.416 337.058 160.231 336.587L173.892 328.699C174.707 328.227 175.368 327.13 175.368 326.247C175.368 325.364 174.707 324.267 173.892 323.796L129.772 298.32C128.958 297.849 127.635 297.848 126.821 298.32Z" fill="#263E47"/>
<path d="M158.755 336.94C159.289 336.94 159.823 336.822 160.231 336.587L173.892 328.699C174.707 328.227 175.368 327.13 175.368 326.247C175.368 325.364 174.707 324.267 173.892 323.796L172.472 322.976H158.755V336.94Z" fill="#17282F"/>
<path d="M173.901 323.796L129.782 298.32C128.966 297.849 127.645 297.849 126.829 298.32L113.168 306.208C112.352 306.68 112.352 307.442 113.168 307.912L157.286 333.389C158.102 333.859 159.423 333.859 160.238 333.389L173.901 325.5C174.715 325.03 174.715 324.266 173.901 323.796Z" fill="#33535F"/>
<path d="M149.474 313.256L149.252 313.262L147.864 312.459L147.871 312.331L149.478 311.404L149.699 311.398L151.087 312.201L151.081 312.329L149.474 313.256ZM132.945 303.031L132.724 303.035L131.334 302.234L131.342 302.106L131.769 301.859L131.991 301.854L133.381 302.656L133.372 302.785L132.945 303.031ZM120.434 307.787L119.045 306.984L119.052 306.857L120.659 305.929L120.881 305.925L122.271 306.727L122.262 306.854L120.655 307.783L120.434 307.787ZM125.51 302.635L125.288 302.64L123.899 301.837L123.907 301.71L125.514 300.782L125.735 300.778L127.124 301.58L127.115 301.707L125.51 302.635ZM128.884 300.686L128.663 300.691L127.273 299.888L127.281 299.761L127.709 299.513L127.93 299.509L129.32 300.312L129.312 300.44L128.884 300.686ZM134.975 304.204L134.754 304.208L133.364 303.406L133.372 303.279L133.8 303.031L134.021 303.027L135.411 303.829L135.403 303.956L134.975 304.204ZM145.413 310.911L145.192 310.917L143.803 310.115L143.81 309.986L145.417 309.059L145.638 309.054L147.027 309.856L147.02 309.985L145.413 310.911ZM147.443 312.084L147.222 312.089L145.833 311.286L145.84 311.159L147.447 310.231L147.669 310.227L149.057 311.029L149.05 311.156L147.443 312.084ZM138.874 307.135L138.653 307.141L137.263 306.338L137.271 306.21L138.877 305.283L139.099 305.277L140.488 306.08L140.48 306.208L138.874 307.135ZM143.383 309.74L143.161 309.744L141.773 308.942L141.78 308.814L143.387 307.886L143.608 307.882L144.997 308.684L144.99 308.812L143.383 309.74ZM136.844 305.964L136.622 305.968L135.232 305.165L135.241 305.038L136.846 304.11L137.068 304.106L138.458 304.908L138.449 305.035L136.844 305.964ZM140.904 308.308L140.682 308.312L139.293 307.51L139.301 307.383L140.907 306.455L141.128 306.45L142.518 307.253L142.51 307.38L140.904 308.308ZM130.915 301.859L130.693 301.864L129.303 301.061L129.312 300.934L129.739 300.686L129.96 300.682L131.35 301.485L131.342 301.612L130.915 301.859ZM140.203 319.203L138.813 318.4L138.821 318.272L140.429 317.345L140.65 317.341L142.038 318.142L142.031 318.27L140.424 319.198L140.203 319.203ZM144.264 321.547L142.875 320.745L142.882 320.616L144.489 319.689L144.71 319.685L146.099 320.488L146.092 320.615L144.485 321.543L144.264 321.547ZM142.233 320.374L140.845 319.573L140.852 319.445L142.459 318.516L142.68 318.512L144.069 319.315L144.062 319.442L142.455 320.37L142.233 320.374ZM150.354 325.065L148.965 324.262L148.973 324.134L150.58 323.207L150.801 323.202L152.19 324.004L152.183 324.132L150.576 325.059L150.354 325.065ZM146.294 322.719L144.904 321.918L144.912 321.789L146.519 320.861L146.741 320.857L148.129 321.659L148.122 321.788L146.515 322.715L146.294 322.719ZM148.324 323.892L146.934 323.089L146.943 322.962L148.55 322.034L148.771 322.03L150.159 322.832L150.153 322.959L148.545 323.888L148.324 323.892ZM129.205 312.719L128.983 312.723L127.594 311.921L127.602 311.794L129.208 310.866L129.429 310.862L130.819 311.664L130.811 311.791L129.205 312.719ZM138.173 318.03L136.783 317.227L136.791 317.1L138.398 316.172L138.619 316.168L140.008 316.97L140.001 317.097L138.394 318.025L138.173 318.03ZM126.789 308.807L125.401 308.005L125.409 307.877L127.014 306.95L127.236 306.944L128.626 307.747L128.617 307.875L127.012 308.802L126.789 308.807ZM124.716 310.127L124.495 310.131L123.106 309.33L123.113 309.202L124.72 308.274L124.941 308.269L126.331 309.072L126.323 309.2L124.716 310.127ZM136.142 316.858L132.082 314.513L132.09 314.385L133.696 313.457L133.917 313.452L137.978 315.797L137.971 315.926L136.364 316.852L136.142 316.858ZM131.543 308.902L130.153 308.099L130.161 307.971L131.767 307.044L131.989 307.038L133.378 307.841L133.37 307.969L131.764 308.896L131.543 308.902ZM122.464 308.96L121.076 308.157L121.083 308.029L122.69 307.102L122.911 307.098L124.301 307.9L124.293 308.027L122.686 308.956L122.464 308.96ZM126.914 312.191L127.135 312.187L128.525 312.989L128.516 313.116L126.909 314.044L126.688 314.049L125.3 313.246L125.306 313.118L126.914 312.191ZM134.18 316.386L134.401 316.382L136.111 317.37L136.102 317.497L134.497 318.425L134.275 318.429L132.566 317.442L132.573 317.314L134.18 316.386ZM155.658 328.788L155.88 328.784L157.589 329.772L157.581 329.899L155.975 330.827L155.754 330.831L154.043 329.845L154.051 329.717L155.658 328.788ZM138.881 319.102L139.104 319.097L140.813 320.084L140.805 320.212L139.199 321.139L138.976 321.145L137.267 320.157L137.275 320.03L138.881 319.102ZM153.307 327.431L153.529 327.427L155.238 328.415L155.231 328.542L153.624 329.47L153.403 329.475L151.693 328.487L151.7 328.36L153.307 327.431ZM141.232 320.459L141.453 320.454L152.887 327.057L152.88 327.185L151.273 328.112L151.052 328.116L139.618 321.515L139.626 321.387L141.232 320.459ZM131.401 314.782L131.623 314.778L133.76 316.011L133.753 316.14L132.146 317.067L131.924 317.072L129.787 315.839L129.794 315.71L131.401 314.782ZM136.53 317.745L136.752 317.739L138.462 318.727L138.454 318.855L136.848 319.782L136.627 319.786L134.916 318.8L134.924 318.671L136.53 317.745ZM114.728 307.009L118.629 304.757L118.851 304.752L120.24 305.554L120.232 305.683L116.331 307.935L116.109 307.94L114.721 307.138L114.728 307.009ZM118.365 307.254L118.586 307.25L119.975 308.052L119.968 308.18L118.361 309.108L118.14 309.112L116.751 308.31L116.758 308.182L118.365 307.254ZM128.944 313.363L129.165 313.358L130.554 314.161L130.547 314.289L128.94 315.216L128.718 315.22L127.33 314.419L127.337 314.291L128.944 313.363ZM152.385 326.236L150.995 325.434L151.003 325.307L152.61 324.379L152.831 324.374L154.22 325.177L154.213 325.304L152.606 326.232L152.385 326.236ZM124.883 311.018L125.105 311.014L126.493 311.816L126.486 311.945L124.879 312.871L124.658 312.876L123.269 312.073L123.276 311.946L124.883 311.018ZM120.395 308.427L120.617 308.423L124.035 310.397L124.029 310.525L122.421 311.452L122.2 311.456L118.781 309.483L118.788 309.354L120.395 308.427ZM163.423 321.311L163.201 321.316L161.811 320.514L161.82 320.385L163.425 319.458L163.647 319.453L165.037 320.255L165.028 320.384L163.423 321.311ZM161.392 320.139L161.17 320.143L159.781 319.341L159.79 319.214L161.395 318.285L161.616 318.281L163.006 319.084L162.998 319.211L161.392 320.139ZM158.008 330.147L158.231 330.143L160.368 331.376L160.359 331.504L158.754 332.432L158.532 332.436L156.394 331.202L156.402 331.074L158.008 330.147ZM158.478 318.456L158.257 318.461L156.867 317.659L156.875 317.53L158.481 316.603L158.704 316.598L160.092 317.4L160.084 317.529L158.478 318.456ZM154.418 316.111L154.197 316.117L152.807 315.314L152.815 315.186L154.421 314.259L154.643 314.253L156.032 315.056L156.024 315.184L154.418 316.111ZM165.453 322.484L165.232 322.488L163.842 321.685L163.85 321.558L165.456 320.63L165.677 320.626L167.067 321.428L167.059 321.555L165.453 322.484ZM156.448 317.284L156.227 317.288L154.837 316.486L154.845 316.359L156.451 315.43L156.674 315.426L158.062 316.229L158.054 316.356L156.448 317.284ZM152.388 314.939L152.166 314.944L150.776 314.141L150.785 314.014L152.39 313.086L152.613 313.082L154.002 313.884L153.993 314.011L152.388 314.939ZM159.124 329.996L160.731 329.068L160.953 329.064L162.662 330.051L162.654 330.179L161.048 331.107L160.827 331.111L159.116 330.123L159.124 329.996ZM160.458 328.115L162.063 327.188L162.286 327.184L164.956 328.726L164.95 328.853L163.343 329.782L163.121 329.786L160.449 328.243L160.458 328.115ZM167.483 323.655L167.261 323.661L165.872 322.858L165.88 322.73L167.486 321.803L167.707 321.798L169.097 322.6L169.089 322.728L167.483 323.655ZM168.793 324.412L170.4 323.485L170.621 323.481L172.331 324.467L172.324 324.596L170.717 325.523L170.496 325.528L168.786 324.54L168.793 324.412ZM163.287 327.099L164.893 326.171L165.114 326.167L167.251 327.401L167.244 327.528L165.637 328.456L165.416 328.461L163.279 327.227L163.287 327.099ZM166.328 326.206L167.936 325.278L168.157 325.274L169.547 326.076L169.538 326.203L167.933 327.131L167.71 327.135L166.322 326.333L166.328 326.206ZM154.415 327.409L153.025 326.607L153.033 326.478L154.64 325.552L154.862 325.546L156.25 326.348L156.243 326.477L154.636 327.404L154.415 327.409ZM152.932 319.132L154.322 319.934L154.314 320.063L152.707 320.99L152.486 320.995L151.097 320.193L151.104 320.064L152.711 319.138L152.932 319.132ZM154.963 320.305L156.353 321.107L156.344 321.235L154.737 322.163L154.516 322.167L153.127 321.365L153.134 321.237L154.741 320.309L154.963 320.305ZM146.842 315.616L148.232 316.418L148.223 316.545L146.616 317.474L146.395 317.478L145.006 316.675L145.015 316.548L146.62 315.62L146.842 315.616ZM150.902 317.96L152.292 318.763L152.284 318.89L150.677 319.818L150.455 319.822L149.067 319.02L149.074 318.893L150.681 317.965L150.902 317.96ZM148.872 316.787L150.262 317.59L150.254 317.718L148.646 318.645L148.425 318.651L147.037 317.848L147.044 317.72L148.651 316.793L148.872 316.787ZM156.993 321.478L158.383 322.279L158.375 322.408L156.769 323.336L156.546 323.34L155.158 322.538L155.166 322.409L156.772 321.482L156.993 321.478ZM159.023 322.65L160.413 323.452L160.405 323.581L158.798 324.507L158.577 324.511L157.188 323.709L157.195 323.582L158.802 322.654L159.023 322.65ZM151.688 323.184L150.298 322.381L150.306 322.254L151.912 321.326L152.134 321.322L153.523 322.124L153.515 322.251L151.909 323.179L151.688 323.184ZM153.718 324.357L152.328 323.554L152.336 323.426L153.942 322.499L154.165 322.493L155.553 323.296L155.545 323.424L153.939 324.351L153.718 324.357ZM155.748 325.528L154.358 324.726L154.367 324.599L155.972 323.67L156.195 323.666L157.584 324.469L157.575 324.596L155.97 325.524L155.748 325.528ZM161.054 323.823L162.444 324.625L162.435 324.752L160.828 325.68L160.607 325.684L159.218 324.882L159.227 324.754L160.832 323.827L161.054 323.823ZM158 326.696L157.779 326.701L156.389 325.899L156.397 325.77L158.003 324.843L158.225 324.839L159.614 325.64L159.606 325.769L158 326.696ZM142.781 313.271L144.171 314.073L144.163 314.201L142.557 315.129L142.334 315.133L140.946 314.331L140.954 314.204L142.56 313.275L142.781 313.271ZM124.981 307.63L124.759 307.634L123.37 306.832L123.379 306.705L124.984 305.777L125.206 305.773L126.595 306.575L126.587 306.702L124.981 307.63ZM144.811 314.443L146.201 315.245L146.193 315.374L144.586 316.301L144.365 316.305L142.976 315.504L142.984 315.375L144.59 314.448L144.811 314.443ZM129.53 305.619L130.92 306.421L130.912 306.55L129.306 307.477L129.085 307.482L127.695 306.68L127.703 306.551L129.309 305.625L129.53 305.619ZM124.821 303.032L120.921 305.286L120.698 305.29L119.31 304.488L119.318 304.359L123.218 302.107L123.441 302.103L124.829 302.905L124.821 303.032ZM125.248 303.279L125.471 303.275L126.86 304.077L126.851 304.205L125.246 305.132L125.024 305.136L123.634 304.335L123.643 304.207L125.248 303.279ZM127.055 306.309L125.665 305.507L125.673 305.38L127.279 304.452L127.5 304.448L128.89 305.25L128.882 305.377L127.276 306.305L127.055 306.309ZM122.728 306.462L121.34 305.661L121.348 305.532L122.954 304.604L123.175 304.6L124.565 305.402L124.557 305.531L122.951 306.457L122.728 306.462ZM147.627 320.839L146.237 320.037L146.246 319.909L147.851 318.981L148.074 318.977L149.462 319.779L149.454 319.907L147.848 320.835L147.627 320.839ZM127.543 301.955L127.765 301.949L129.154 302.752L129.146 302.88L127.54 303.807L127.319 303.813L125.929 303.01L125.937 302.882L127.543 301.955ZM140.304 313.96L138.915 313.159L138.924 313.031L140.529 312.102L140.751 312.098L142.141 312.901L142.132 313.029L140.525 313.956L140.304 313.96ZM129.796 303.122L131.184 303.925L131.176 304.052L129.57 304.98L129.349 304.984L127.959 304.182L127.967 304.055L129.573 303.127L129.796 303.122ZM134.284 305.713L135.672 306.515L135.664 306.644L134.058 307.571L133.837 307.576L132.447 306.774L132.455 306.645L134.062 305.719L134.284 305.713ZM131.826 304.294L133.215 305.096L133.206 305.225L131.601 306.152L131.379 306.157L129.989 305.355L129.998 305.226L131.603 304.3L131.826 304.294ZM149.657 322.012L148.268 321.21L148.276 321.081L149.881 320.154L150.104 320.149L151.493 320.951L151.484 321.08L149.879 322.006L149.657 322.012ZM160.036 320.584L161.426 321.387L161.417 321.514L159.81 322.442L159.589 322.446L158.2 321.644L158.209 321.517L159.814 320.589L160.036 320.584ZM158.005 319.411L159.395 320.214L159.387 320.342L157.78 321.269L157.559 321.275L156.17 320.472L156.178 320.344L157.784 319.417L158.005 319.411ZM155.975 318.24L157.365 319.042L157.357 319.169L155.75 320.098L155.528 320.102L154.14 319.299L154.148 319.172L155.754 318.244L155.975 318.24ZM151.915 315.895L153.304 316.698L153.296 316.825L151.689 317.753L151.468 317.757L150.079 316.955L150.086 316.828L151.693 315.899L151.915 315.895ZM162.066 321.756L163.456 322.558L163.448 322.687L161.841 323.614L161.619 323.619L160.231 322.817L160.239 322.688L161.845 321.762L162.066 321.756ZM153.945 317.067L155.335 317.869L155.326 317.998L153.721 318.925L153.498 318.93L152.11 318.128L152.116 317.999L153.724 317.072L153.945 317.067ZM164.096 322.929L165.486 323.731L165.478 323.859L163.871 324.787L163.65 324.791L162.261 323.989L162.269 323.861L163.875 322.933L164.096 322.929ZM158.697 329.748L158.476 329.754L157.086 328.952L157.094 328.823L158.701 327.896L158.922 327.891L160.311 328.693L160.304 328.822L158.697 329.748ZM156.445 328.581L155.057 327.779L155.064 327.651L156.671 326.723L156.892 326.719L158.281 327.521L158.274 327.649L156.667 328.577L156.445 328.581ZM162.858 326.852L162.637 326.857L161.249 326.055L161.257 325.926L162.863 325L163.084 324.994L164.474 325.796L164.466 325.925L162.858 326.852ZM166.127 324.102L167.516 324.903L167.508 325.032L165.901 325.958L165.68 325.964L164.291 325.162L164.3 325.033L165.905 324.106L166.127 324.102ZM160.03 327.869L159.809 327.873L158.419 327.07L158.427 326.943L160.033 326.015L160.256 326.011L161.644 326.813L161.636 326.942L160.03 327.869ZM149.884 314.722L151.274 315.525L151.266 315.653L149.659 316.58L149.438 316.584L148.049 315.782L148.056 315.655L149.663 314.726L149.884 314.722ZM147.854 313.551L149.244 314.352L149.236 314.48L147.629 315.408L147.407 315.412L146.019 314.61L146.027 314.482L147.633 313.555L147.854 313.551ZM137.476 314.977L134.376 313.188L134.385 313.06L138.285 310.808L138.507 310.802L140.109 311.728L140.102 311.856L138.037 313.049L138.029 313.177L139.311 313.917L139.303 314.044L137.697 314.973L137.476 314.977ZM135.603 311.246L134.213 310.444L134.221 310.315L135.827 309.388L136.048 309.383L137.438 310.185L137.43 310.314L135.824 311.241L135.603 311.246ZM145.597 319.666L144.207 318.865L144.215 318.736L145.821 317.81L146.044 317.804L147.432 318.606L147.424 318.735L145.818 319.662L145.597 319.666ZM143.567 318.494L142.177 317.692L142.185 317.565L143.791 316.637L144.013 316.632L145.402 317.435L145.394 317.562L143.788 318.49L143.567 318.494ZM141.536 317.321L140.146 316.52L140.155 316.392L141.76 315.464L141.983 315.46L143.372 316.262L143.363 316.39L141.758 317.317L141.536 317.321ZM139.506 316.15L138.116 315.347L138.124 315.219L139.73 314.292L139.953 314.288L141.341 315.089L141.333 315.217L139.727 316.146L139.506 316.15ZM145.824 312.378L147.214 313.18L147.205 313.307L145.598 314.235L145.377 314.239L143.988 313.437L143.997 313.31L145.602 312.382L145.824 312.378ZM143.793 311.205L145.183 312.007L145.175 312.136L143.568 313.062L143.347 313.068L141.958 312.266L141.966 312.137L143.572 311.21L143.793 311.205ZM138.344 308.058L139.733 308.86L139.725 308.989L138.119 309.915L137.898 309.921L136.508 309.119L136.516 308.99L138.123 308.063L138.344 308.058ZM140.802 309.477L143.153 310.835L143.145 310.963L141.538 311.891L141.316 311.895L138.965 310.538L138.974 310.409L140.581 309.483L140.802 309.477ZM136.314 306.886L137.703 307.688L137.694 307.816L136.089 308.744L135.867 308.748L134.477 307.946L134.486 307.818L136.093 306.89L136.314 306.886ZM133.573 310.073L132.183 309.271L132.191 309.144L133.797 308.215L134.02 308.211L135.408 309.014L135.4 309.141L133.794 310.069L133.573 310.073Z" fill="#26B6A6"/>
<path d="M150.462 300.667L167.062 310.256L167.145 310.213L173.41 306.589C174.488 305.966 175.18 304.458 174.945 303.241L172.594 291.069L158.763 279.878L155.997 281.483L158.335 293.655C158.57 294.873 157.892 296.38 156.813 297.003L150.462 300.667Z" fill="#33535F"/>
<path d="M167.062 310.256V313.45L175.733 308.442C177.365 307.516 178.402 305.233 178.043 303.394L175.374 289.478L172.594 291.069L174.945 303.241C175.18 304.459 174.488 305.966 173.41 306.589L167.145 310.213L167.062 310.256Z" fill="#17282F"/>
<path d="M150.462 300.667L167.062 310.256V313.457L150.46 303.862L150.462 300.667Z" fill="#263E47"/>
<path d="M135.219 219.922C134.454 220.364 133.834 221.485 133.834 222.425V273.378C133.834 274.32 134.495 275.464 135.31 275.935L198.812 312.604C199.628 313.075 200.908 313.098 201.672 312.657C202.437 312.214 203.056 311.094 203.056 310.152V259.2C203.056 258.258 202.395 257.114 201.58 256.644L138.079 219.974C137.264 219.504 135.983 219.48 135.219 219.922Z" fill="#33535F"/>
<path d="M198.812 312.604C199.628 313.075 200.908 313.098 201.672 312.657C202.437 312.214 203.056 311.094 203.056 310.152V259.2C203.056 258.73 202.892 258.208 202.625 257.745L153.217 286.276L198.812 312.604Z" fill="#17282F"/>
<path d="M133.834 273.378V222.425C133.834 221.485 134.495 221.103 135.31 221.573L198.812 258.242C199.626 258.713 200.287 259.857 200.287 260.799V311.751C200.287 312.693 199.628 313.075 198.812 312.604L135.31 275.935C134.495 275.464 133.834 274.32 133.834 273.378Z" fill="#263E47"/>
<path d="M137.449 224.42L197.723 259.213C198.375 259.589 198.903 260.505 198.903 261.257V306.496C198.903 307.249 198.375 307.554 197.722 307.178L137.449 272.385C136.797 272.009 136.268 271.093 136.268 270.341V225.102C136.268 224.348 136.798 224.044 137.449 224.42Z" fill="white"/>
<path d="M221.713 389.456L257.46 368.83C258.452 368.258 259.257 366.864 259.257 365.718L259.261 343.914C259.261 342.767 258.457 341.375 257.464 340.802L232.964 326.658C231.971 326.086 230.363 326.086 229.371 326.658L193.646 347.286C192.654 347.861 191.849 349.253 191.848 350.399L191.836 372.201C191.836 373.348 192.639 374.741 193.631 375.314L218.12 389.456C219.113 390.029 220.722 390.029 221.713 389.456Z" fill="#17282F"/>
<path d="M218.131 363.506L193.646 349.363C192.654 348.789 192.654 347.86 193.646 347.286L229.371 326.658C230.363 326.085 231.971 326.085 232.964 326.658L257.464 340.802C258.457 341.374 258.457 342.303 257.464 342.875L221.724 363.508C220.733 364.08 219.124 364.08 218.131 363.506Z" fill="#33535F"/>
<path d="M219.921 363.938V389.888C220.571 389.888 221.221 389.736 221.719 389.459L257.456 368.835C258.452 368.254 259.254 366.871 259.254 365.722L259.268 343.909C259.268 342.95 258.676 341.835 257.903 341.152C258.408 341.709 258.271 342.409 257.47 342.871L221.719 363.509C221.221 363.786 220.585 363.938 219.921 363.938Z" fill="#263E47"/>
<path d="M248.514 342.12C247.872 341.741 246.815 341.745 246.154 342.127L220.459 356.964C219.798 357.345 219.783 357.962 220.424 358.34C221.066 358.718 222.123 358.715 222.784 358.333L248.478 343.496C249.139 343.113 249.155 342.498 248.514 342.12Z" fill="#263E47"/>
<path d="M248.514 342.12C247.872 341.741 246.815 341.745 246.154 342.127L230.511 351.161L232.836 352.53L248.478 343.496C249.139 343.113 249.155 342.498 248.514 342.12Z" fill="#26B6A6"/>
<path d="M244.057 339.546C243.416 339.168 242.359 339.171 241.698 339.553L216.003 354.389C215.341 354.773 215.326 355.388 215.968 355.766C216.61 356.145 217.666 356.141 218.327 355.759L244.021 340.922C244.682 340.54 244.699 339.923 244.057 339.546Z" fill="#263E47"/>
<path d="M244.057 339.546C243.416 339.168 242.359 339.171 241.696 339.551L239.601 340.758L241.926 342.127L244.021 340.921C244.682 340.539 244.699 339.923 244.057 339.546Z" fill="#26B6A6"/>
<path d="M239.601 336.973C238.96 336.594 237.904 336.598 237.242 336.98L211.548 351.816C210.885 352.198 210.87 352.814 211.512 353.193C212.154 353.57 213.21 353.568 213.871 353.186L239.565 338.348C240.228 337.966 240.243 337.351 239.601 336.973Z" fill="#263E47"/>
<path d="M239.601 336.973C238.96 336.594 237.904 336.598 237.242 336.98L228.157 342.226L230.482 343.594L239.565 338.349C240.228 337.966 240.243 337.351 239.601 336.973Z" fill="#26B6A6"/>
<path d="M235.144 334.399C234.502 334.021 233.445 334.024 232.784 334.406L207.089 349.242C206.428 349.626 206.411 350.241 207.054 350.619C207.696 350.998 208.753 350.994 209.414 350.612L235.108 335.775C235.769 335.393 235.785 334.776 235.144 334.399Z" fill="#263E47"/>
<path d="M235.144 334.399C234.502 334.021 233.445 334.024 232.784 334.406L214.383 345.03L216.707 346.4L235.108 335.775C235.769 335.393 235.785 334.777 235.144 334.399Z" fill="#26B6A6"/>
<path d="M230.688 331.826C230.046 331.447 228.989 331.451 228.328 331.833L202.633 346.67C201.972 347.051 201.957 347.667 202.598 348.046C203.24 348.423 204.297 348.421 204.958 348.039L230.652 333.201C231.313 332.819 231.329 332.204 230.688 331.826Z" fill="#263E47"/>
<path d="M230.688 331.826C230.046 331.447 228.989 331.45 228.328 331.833L205.185 345.189L207.508 346.559L230.652 333.201C231.313 332.819 231.329 332.204 230.688 331.826Z" fill="#26B6A6"/>
<path d="M217.119 382.361V377.943C217.119 376.797 216.491 375.505 215.715 375.058C214.939 374.61 214.31 375.176 214.31 376.321V380.739C214.31 381.886 214.939 383.178 215.715 383.626C216.491 384.072 217.119 383.507 217.119 382.361Z" fill="#263E47"/>
<path d="M215.647 375.722C216.162 376.019 216.578 376.741 216.578 377.335C216.578 377.928 216.162 378.169 215.647 377.871C215.133 377.575 214.716 376.853 214.716 376.26C214.716 375.665 215.133 375.424 215.647 375.722Z" fill="#26B6A6"/>
<path d="M212.686 379.816V375.398C212.686 374.253 212.057 372.961 211.281 372.513C210.505 372.065 209.877 372.63 209.877 373.777V378.195C209.877 379.34 210.505 380.632 211.281 381.081C212.057 381.529 212.686 380.963 212.686 379.816Z" fill="#263E47"/>
<path d="M211.281 378.266C211.796 378.563 212.212 379.285 212.212 379.879C212.212 380.472 211.796 380.713 211.281 380.417C210.767 380.119 210.35 379.397 210.35 378.804C210.35 378.21 210.767 377.97 211.281 378.266Z" fill="#26B6A6"/>
<path d="M129.888 434.394C129.362 435.091 129.268 436.703 128.734 438.885C128.2 441.065 128.02 442.755 128.377 443.823C128.734 444.889 131.078 447.292 133.953 448.182C136.827 449.071 140.364 448.324 143.787 446.278C147.208 444.232 149.792 441.743 154.667 440.356C159.542 438.968 161.982 437.842 164.29 435.988C166.992 433.817 168.736 430.567 163.565 429.18C158.351 427.782 149.013 429.945 138.784 430.389L129.888 434.394Z" fill="#17282F"/>
<path d="M129.888 427.997V435.661C129.888 435.661 130.941 438.208 135.31 438.37C137.974 438.47 139.915 437.251 141.105 435.596V427.997H129.888Z" fill="#F6879F"/>
<path d="M144.522 377.859C144.578 387.394 141.846 431.356 141.846 431.356C141.846 431.356 137.947 436.288 129.481 431.356L126.605 382.573L144.522 377.859Z" fill="#263E47"/>
<path d="M152.887 449.378C152.36 450.077 152.265 451.689 151.732 453.87C151.198 456.051 151.018 457.74 151.375 458.808C151.732 459.875 154.076 462.277 156.95 463.167C159.826 464.057 163.362 463.31 166.784 461.265C170.207 459.217 172.79 456.729 177.665 455.341C182.54 453.954 184.98 452.828 187.288 450.973C189.991 448.803 191.733 445.553 186.564 444.166C181.35 442.766 172.011 444.931 161.782 445.375L152.887 449.378Z" fill="#17282F"/>
<path d="M152.887 442.982V450.645C152.887 450.645 153.938 453.194 158.307 453.356C160.972 453.456 162.914 452.235 164.103 450.58V442.982H152.887Z" fill="#F6879F"/>
<path d="M167.521 392.845C167.576 402.378 164.843 446.342 164.843 446.342C164.843 446.342 160.946 451.274 152.479 446.342L149.604 397.559L167.521 392.845Z" fill="#263E47"/>
<path d="M137.885 483.321C137.885 483.713 137.838 484.068 137.77 484.39C137.597 485.07 137.264 485.576 136.803 485.886L136.769 485.909C136.022 486.392 134.963 486.346 133.801 485.68C131.547 484.38 129.718 481.216 129.718 478.605C129.718 477.339 130.166 476.464 130.869 476.016L130.856 476.004L131.053 475.889H131.064C131.559 475.671 132.145 475.636 132.801 475.82C133.123 475.913 133.457 476.062 133.801 476.259C136.055 477.558 137.885 480.721 137.885 483.321Z" fill="#33535F"/>
<path d="M136.769 474.544C136.125 474.176 135.504 473.991 134.952 473.991C134.526 473.991 134.136 474.107 133.801 474.314L133.699 474.372L131.064 475.889C131.559 475.671 132.146 475.636 132.801 475.82C133.123 475.913 133.457 476.062 133.801 476.259C136.055 477.558 137.885 480.721 137.885 483.321C137.885 483.713 137.838 484.069 137.77 484.391C137.598 485.07 137.264 485.576 136.804 485.886L139.506 484.321L139.553 484.299L139.783 484.161L139.852 484.116C140.473 483.655 140.852 482.78 140.852 481.607C140.852 479.007 139.023 475.844 136.769 474.544Z" fill="#17282F"/>
<path d="M93.7126 459.564C93.7126 459.956 93.667 460.312 93.5978 460.635C93.425 461.314 93.0917 461.82 92.6311 462.13L92.5965 462.154C91.8497 462.636 90.7917 462.591 89.6299 461.923C87.3756 460.624 85.5458 457.461 85.5458 454.849C85.5458 453.583 85.9953 452.709 86.6965 452.259L86.6855 452.248L86.8804 452.133H86.8915C87.3866 451.915 87.9731 451.881 88.6286 452.064C88.9509 452.157 89.2842 452.306 89.6299 452.501C91.8843 453.802 93.7126 456.965 93.7126 459.564Z" fill="#33535F"/>
<path d="M92.5966 450.788C91.9535 450.419 91.3311 450.236 90.7793 450.236C90.3547 450.236 89.9633 450.35 89.63 450.558L89.5263 450.615L86.8916 452.133C87.3868 451.915 87.9732 451.881 88.6287 452.064C88.951 452.157 89.2843 452.306 89.63 452.501C91.8843 453.801 93.7127 456.965 93.7127 459.564C93.7127 459.956 93.6671 460.312 93.5979 460.635C93.425 461.314 93.0917 461.82 92.6312 462.13L95.335 460.566L95.3806 460.542L95.6102 460.405L95.6794 460.358C96.3003 459.899 96.6807 459.025 96.6807 457.85C96.6807 455.251 94.8509 452.088 92.5966 450.788Z" fill="#17282F"/>
<path d="M101.592 492.598C101.592 492.988 101.637 493.344 101.707 493.667C101.879 494.346 102.213 494.852 102.673 495.162L102.708 495.185C103.455 495.668 104.514 495.622 105.674 494.956C107.93 493.656 109.759 490.492 109.759 487.881C109.759 486.615 109.31 485.741 108.608 485.292L108.619 485.28L108.424 485.165H108.413C107.918 484.947 107.331 484.912 106.676 485.096C106.354 485.189 106.02 485.338 105.674 485.533C103.42 486.833 101.592 489.997 101.592 492.598Z" fill="#33535F"/>
<path d="M102.708 483.819C103.352 483.452 103.973 483.267 104.525 483.267C104.951 483.267 105.341 483.382 105.674 483.59L105.778 483.647L108.413 485.166C107.918 484.947 107.331 484.912 106.676 485.096C106.354 485.189 106.02 485.338 105.674 485.533C103.42 486.833 101.592 489.997 101.592 492.598C101.592 492.988 101.637 493.345 101.707 493.667C101.879 494.346 102.213 494.852 102.673 495.162L99.9708 493.598L99.9238 493.576L99.6942 493.437L99.6251 493.39C99.0041 492.931 98.6238 492.057 98.6238 490.882C98.6238 488.283 100.453 485.12 102.708 483.819Z" fill="#17282F"/>
<path d="M72.9187 478.549C72.9187 478.941 72.9644 479.298 73.0335 479.62C73.2064 480.298 73.5397 480.804 74.0002 481.115L74.0334 481.139C74.7816 481.621 75.8396 481.576 77.0014 480.908C79.2557 479.608 81.0854 476.444 81.0854 473.834C81.0854 472.568 80.636 471.694 79.9348 471.244L79.9458 471.233L79.7508 471.119H79.7398C79.2447 470.9 78.6582 470.866 78.0027 471.049C77.6804 471.142 77.3471 471.291 77.0014 471.486C74.7471 472.787 72.9187 475.95 72.9187 478.549Z" fill="#33535F"/>
<path d="M74.0334 469.773C74.6779 469.405 75.2988 469.221 75.852 469.221C76.2766 469.221 76.668 469.335 77.0013 469.542L77.1051 469.6L79.7397 471.119C79.2446 470.9 78.6582 470.866 78.0027 471.049C77.6804 471.142 77.3471 471.291 77.0013 471.486C74.747 472.787 72.9187 475.95 72.9187 478.549C72.9187 478.941 72.9643 479.298 73.0335 479.62C73.2063 480.298 73.5396 480.804 74.0002 481.115L71.2964 479.551L71.2507 479.527L71.0211 479.39L70.952 479.343C70.331 478.883 69.9507 478.008 69.9507 476.835C69.9507 474.236 71.7804 471.073 74.0334 469.773Z" fill="#17282F"/>
<path d="M128.343 461.321C128.343 461.712 128.391 462.069 128.46 462.392C128.631 463.069 128.964 463.576 129.425 463.887L129.46 463.909C130.208 464.393 131.266 464.346 132.428 463.679C134.682 462.379 136.51 459.216 136.51 456.604C136.51 455.339 136.062 454.465 135.361 454.016L135.372 454.005L135.177 453.889H135.165C134.671 453.672 134.083 453.636 133.427 453.821C133.107 453.912 132.772 454.062 132.428 454.258C130.173 455.557 128.343 458.721 128.343 461.321Z" fill="#33535F"/>
<path d="M129.46 452.544C130.104 452.175 130.725 451.991 131.277 451.991C131.703 451.991 132.094 452.107 132.428 452.313L132.532 452.371L135.165 453.889C134.671 453.672 134.083 453.636 133.428 453.821C133.107 453.912 132.772 454.062 132.428 454.258C130.173 455.557 128.344 458.721 128.344 461.321C128.344 461.712 128.391 462.069 128.46 462.392C128.631 463.069 128.965 463.575 129.425 463.887L126.723 462.322L126.676 462.299L126.446 462.16L126.377 462.115C125.756 461.654 125.377 460.78 125.377 459.607C125.377 457.007 127.205 453.843 129.46 452.544Z" fill="#17282F"/>
<path d="M103.969 452.689L89.3907 448.509V451.622L103.969 460.033V452.689Z" fill="#F3F2F1"/>
<path d="M103.969 452.689L105.407 451.808L90.7847 447.812L89.3906 448.509L103.969 452.689Z" fill="#FAFAF9"/>
<path d="M110.276 461.982L130.944 454.237V451.085L110.276 452.933V461.982Z" fill="#F3F2F1"/>
<path d="M130.944 451.085L129.425 450.684L109.048 452.001L110.276 452.933L130.944 451.085Z" fill="#FAFAF9"/>
<path d="M110.829 460.986C110.829 463.328 103.64 463.328 103.64 460.986V440.545H110.829V460.986Z" fill="#FAFAF9"/>
<path d="M105.442 455.668L101.488 481.335H104.19L107.889 455.668C106.962 455.93 106.176 455.861 105.442 455.668Z" fill="#FAFAF9"/>
<path d="M107.889 455.668V462.717L104.19 485.681V481.335L107.889 455.668Z" fill="#F3F2F1"/>
<path d="M104.19 485.681H101.488V481.335H104.19V485.681Z" fill="#E7E8E5"/>
<path d="M109.118 462.508L135.771 476.48V472.176L109.118 455.687V462.508Z" fill="#F3F2F1"/>
<path d="M109.118 455.687C109.756 455.597 110.344 455.381 110.829 454.912L137.434 471.053L135.771 472.176L109.118 455.687Z" fill="#FAFAF9"/>
<path d="M135.771 476.48V472.176L137.434 471.054V475.224L135.771 476.48Z" fill="#E7E8E5"/>
<path d="M75.5175 471.544L103.991 461.794V455.398L75.5175 467.243V471.544Z" fill="#F3F2F1"/>
<path d="M103.991 455.398C103.759 455.335 103.659 454.92 103.64 454.293L74.6752 466.895L75.5174 467.243L103.991 455.398Z" fill="#FAFAF9"/>
<path d="M74.6753 466.895V471.059L75.5176 471.544V467.243L74.6753 466.895Z" fill="#E7E8E5"/>
<path d="M101.148 404.933H113.323V447.093C113.323 450.591 101.148 450.591 101.148 447.093V404.933Z" fill="#EDEDEB"/>
<path d="M154.114 408.713V408.712C154.114 406.538 152.955 404.53 151.072 403.443L108.482 378.852C106.6 377.765 104.282 377.765 102.399 378.852L59.8118 403.445C57.9295 404.532 56.7705 406.54 56.7705 408.713L105.441 436.821L154.114 408.713Z" fill="#26B6A6"/>
<path d="M154.114 408.712V412.231L108.451 438.598C107.519 439.139 106.483 439.403 105.449 439.403C104.402 439.403 103.367 439.139 102.435 438.598L56.7719 412.231V408.712L102.435 435.078C103.367 435.619 104.402 435.896 105.449 435.896C106.483 435.896 107.519 435.619 108.451 435.078L154.114 408.712Z" fill="#FAFAF9"/>
<path d="M154.114 408.712V412.231L108.451 438.598C107.519 439.139 106.483 439.403 105.449 439.403V435.896C106.483 435.896 107.519 435.619 108.451 435.078L154.114 408.712Z" fill="#F3F2F1"/>
<path d="M105.449 435.896C106.483 435.896 107.519 435.619 108.451 435.078L154.114 408.712C154.114 407.752 153.876 406.829 153.462 406L107.452 432.567C106.832 432.926 106.14 433.104 105.448 433.104C104.756 433.104 104.065 432.926 103.445 432.569L57.4178 406.012C57.0125 406.827 56.7774 407.729 56.7705 408.669C56.7705 408.669 56.7705 408.671 56.7705 408.672C56.7705 408.677 56.7705 408.684 56.7705 408.69C56.7705 408.698 56.7705 408.707 56.7705 408.713L56.7719 408.715V408.712L102.435 435.078C103.367 435.619 104.402 435.896 105.449 435.896Z" fill="#1DB3A0"/>
<path d="M105.441 436.821L105.449 436.816V435.896C106.483 435.896 107.519 435.619 108.451 435.078L154.114 408.712L108.451 435.078C107.519 435.619 106.483 435.896 105.449 435.896C104.402 435.896 103.367 435.619 102.435 435.078L56.7719 408.712V408.715L105.441 436.821Z" fill="#DBDCD9"/>
<path d="M105.449 436.816L154.114 408.713V408.712L108.451 435.078C107.519 435.619 106.483 435.896 105.449 435.896V436.816Z" fill="#D5D7D4"/>
<path d="M71.5039 389.539C71.5039 389.539 111.012 377.616 117.88 375.736C124.748 373.856 137.922 370.688 141.773 372.413C145.622 374.138 147.576 376.138 147.93 381.693C148.003 382.738 147.93 387.821 147.93 387.821C147.93 387.821 128.835 393.732 113.19 393.732C97.5463 393.732 71.5039 389.539 71.5039 389.539Z" fill="#17282F"/>
<path d="M105.271 322.383L102.644 336.551L88.121 338.226L90.2163 318.673L105.271 322.383Z" fill="#F6879F"/>
<path d="M118.828 311.072C118.828 311.072 120.736 316.915 120.152 317.274C119.57 317.634 116.975 317.46 116.975 317.46L118.828 311.072Z" fill="#F47089"/>
<path d="M115.087 292.34C117.589 294.972 119.967 299.381 118.918 310.543C117.77 322.777 114.114 326.038 112.573 326.756C110.272 327.828 102.441 325.951 99.8948 324.076C96.7069 321.727 90.706 315.88 89.1418 308.672C87.3023 300.194 89.6563 290.56 95.8508 288.612C104.567 285.871 112.97 290.112 115.087 292.34Z" fill="#F6879F"/>
<path d="M120.796 298.36C119.311 301.162 116.505 308.128 108.557 310.105C108.557 310.105 108.118 305.356 104.182 305.309C100.221 305.262 98.9046 310.109 100.859 313.498C102.814 316.887 105.271 316.105 105.271 316.105C105.271 316.105 104.876 322.775 100.059 325.159C100.059 325.159 94.2783 327.792 89.0021 324.426C86.6274 322.911 83.8849 316.345 82.4687 311.072C79.4744 299.916 80.0069 291.376 87.099 289.641C88.5899 284.964 90.9923 283.461 95.4525 283.166C105.055 282.533 111.262 289.641 119.245 289.641C123.409 289.641 122.492 295.159 120.796 298.36Z" fill="#17282F"/>
<path d="M87.2746 290.435L82.4685 288.377C83.0369 287.049 84.5735 286.435 85.9012 287.003C87.2276 287.571 87.843 289.109 87.2746 290.435Z" fill="#17282F"/>
<path d="M71.6007 384.79C71.6145 392.38 70.887 400.279 74.0514 405.841C77.1093 411.217 91.5522 422.849 107.696 420.131C118.243 418.356 152.327 405.365 152.327 405.365C152.327 405.365 167.411 399.785 167.48 395.816C167.497 394.845 167.584 393.837 167.521 392.786C167.202 387.506 165.068 381.815 154.028 382.108C141.969 382.428 106.192 388.289 106.192 388.289L71.6007 384.79Z" fill="#263E47"/>
<path d="M74.4083 335.724C75.7125 331.758 80.7412 327.444 85.774 328.379C95.0196 330.096 105.132 333.092 107.814 333.883H107.817C107.817 333.883 106.614 354.257 117.066 360.425L118.445 386.373C118.445 386.373 115.856 391.541 111.865 394.08C107.547 396.826 101.538 400.941 90.6824 400.041C77.7967 398.973 71.504 389.539 71.504 389.539C71.504 389.539 71.6215 365.021 72.0364 354.046C72.3891 344.722 73.5135 338.446 74.4083 335.724Z" fill="#33535F"/>
<path d="M117.333 365.451C117.333 365.451 111.872 359.786 109.949 353.208C109.949 353.208 109.949 362.83 117.44 368.028L117.333 365.451Z" fill="#263E47"/>
<path d="M107.817 333.883C113.523 335.595 116.999 335.905 123.303 345.606C129.608 355.307 143.42 374.55 144.788 376.862C146.69 380.079 147.51 383.908 145.867 386.864C144.334 389.622 139.868 388.414 133.613 382.924C127.562 377.614 115.573 362.596 115.573 362.596C115.573 362.596 109.323 348.91 107.817 333.883Z" fill="#F6879F"/>
<path d="M107.817 333.883C107.817 333.883 112.903 334.947 116.066 336.495C117.039 336.972 120.246 338.201 122.303 341.618C126.714 348.948 133.021 359.383 133.021 359.383C133.021 359.383 134.098 368.47 123.065 371.637L117.195 365.303C114.804 362.722 112.805 359.795 111.348 356.592C108.862 351.129 106.027 342.456 107.817 333.883Z" fill="#33535F"/>
<path d="M143.946 388.222C149.225 387.583 161.054 371.369 164.999 366.212C168.944 361.057 172.24 358.001 175.799 356.048C179.359 354.095 182.434 351.018 183.403 344.808C184.305 339.024 178.917 335.339 174.512 341.152C171.715 344.842 168.893 347.174 168.743 346.559C168.595 345.942 169.613 343.373 169.588 340.695C169.558 337.474 167.304 339.591 166.63 340.72C165.955 341.85 165.168 343.687 164.248 346.043C163.124 348.926 163.589 351.844 162.218 353.81C160.849 355.775 142.456 373.399 142.456 373.399L143.946 388.222Z" fill="#F6879F"/>
<path d="M54.407 338.428V392.833L97.5906 417.862V363.486L54.407 338.428Z" fill="#26B6A6"/>
<path d="M97.5906 417.862C97.5906 417.862 97.5906 374.964 97.5906 367.991C97.5906 365.63 96.8756 364.454 95.9282 363.934C95.3017 363.548 94.6351 363.392 93.9698 363.392C91.1374 363.392 88.2856 366.212 88.2856 366.212L88.2731 362.589L54.407 342.976L88.2731 362.589L88.2856 366.212L54.407 346.523V392.833L97.5906 417.862Z" fill="#1DB3A0"/>
<path d="M101.517 415.595L97.5907 417.862C97.5907 417.862 97.5907 374.964 97.5907 367.991C97.5907 365.63 96.8757 364.454 95.9283 363.934C92.6381 361.906 88.2857 366.212 88.2857 366.212L88.2732 362.589L46.5569 338.43C50.4819 336.162 53.0571 334.675 60.9764 339.17C68.8956 343.664 92.1402 357.105 95.8163 359.373C98.7635 361.191 101.517 363.31 101.517 368.251C101.517 376.812 101.517 415.595 101.517 415.595Z" fill="#26B6A6"/>
<path d="M72.6007 345.837C72.6021 345.829 72.6021 345.82 72.6035 345.813C68.2097 343.292 64.1768 340.987 61.5297 339.484C64.1781 340.99 68.2097 343.304 72.6007 345.837Z" fill="#F4F4F2"/>
<path d="M95.8162 359.373C93.3917 357.798 82.1477 351.291 72.6034 345.813C72.602 345.82 72.602 345.829 72.6006 345.837C82.1311 351.333 93.3558 357.854 95.8162 359.373Z" fill="#7D969B"/>
<path d="M46.6467 338.377C46.6536 338.373 46.6605 338.369 46.6675 338.365C46.6605 338.369 46.6536 338.373 46.6467 338.377ZM46.6799 338.358C48.6936 337.196 50.3657 336.256 52.6187 336.256C50.3643 336.256 48.6936 337.196 46.6799 338.358Z" fill="#F4F4F2"/>
<path d="M88.2731 362.589C89.6727 361.05 92.454 359.372 95.6958 359.372C95.7359 359.372 95.7761 359.372 95.8162 359.373C93.3558 357.855 82.1311 351.333 72.6007 345.837C68.2095 343.304 64.178 340.99 61.5295 339.484C61.3373 339.374 61.1533 339.269 60.9763 339.17C57.2311 337.044 54.6808 336.257 52.6187 336.257C50.3657 336.257 48.6937 337.196 46.68 338.358C46.6758 338.36 46.6717 338.362 46.6675 338.365C46.6606 338.369 46.6537 338.373 46.6468 338.377C46.6163 338.394 46.5873 338.412 46.5569 338.43L88.2731 362.589Z" fill="#5CC8BC"/>
<path d="M88.2856 366.212L46.5569 341.96V338.43L88.2732 362.589L88.2856 366.212Z" fill="#26B6A6"/>
<path d="M88.2856 366.212L88.2732 362.589L46.5569 338.43V341.96L88.2856 366.212Z" fill="#14B099"/>
<path d="M87.6592 435.171C87.0106 435.171 86.3605 435.001 85.77 434.659C84.5861 433.976 83.8808 432.753 83.8808 431.388V402.849C83.8808 401.781 84.7465 400.915 85.8142 400.915C86.8806 400.915 87.7463 401.781 87.7463 402.849V431.236L90.8208 429.459C91.7447 428.926 92.9258 429.242 93.461 430.168C93.9935 431.092 93.6781 432.274 92.7529 432.808L89.5484 434.66C88.9565 435.001 88.3079 435.171 87.6592 435.171Z" fill="#E1E2DF"/>
<path d="M64.0508 421.41C63.4008 421.41 62.7522 421.24 62.1602 420.897C60.9777 420.214 60.271 418.992 60.271 417.626V389.087C60.271 388.02 61.1368 387.154 62.2045 387.154C63.2722 387.154 64.1366 388.02 64.1366 389.087V417.473L67.2111 415.699C68.1349 415.165 69.3174 415.482 69.8527 416.407C70.3851 417.331 70.0684 418.514 69.1445 419.048L65.9387 420.898C65.3467 421.24 64.6981 421.41 64.0508 421.41Z" fill="#E1E2DF"/>
</g>
<defs>
<clipPath id="clip0">
<rect width="603" height="575" fill="white" transform="matrix(-1 0 0 1 603 0)"/>
</clipPath>
</defs>
</svg>
