<svg width="1440" height="354" viewBox="0 0 1440 354" fill="none" xmlns="http://www.w3.org/2000/svg">
<mask id="mask0" mask-type="alpha" maskUnits="userSpaceOnUse" x="0" y="0" width="1440" height="182">
<rect width="1440" height="182" fill="#C4C4C4"/>
</mask>
<g mask="url(#mask0)">
<path fill-rule="evenodd" clip-rule="evenodd" d="M1454.57 54.2993L1497.38 18.2734V270.455V558.224L1432.52 570.215C1367.65 582.205 1237.92 606.186 1108.19 576.21C1049.82 562.721 991.439 538.305 933.061 513.89C861.71 484.049 790.359 454.208 719.009 444.316C623.874 431.126 528.74 453.402 433.606 475.677C399.012 483.777 364.418 491.877 329.823 498.272C200.095 522.253 70.3663 522.253 5.50208 522.253H-59.3622V270.455L-16.5518 234.429C-14.2727 232.567 -11.8828 230.61 -9.38757 228.566C36.4076 191.053 117.668 124.49 200.095 90.3252C287.013 54.2993 372.634 54.2993 459.552 84.3209C488.715 94.3941 517.733 107.847 546.702 121.278C604.073 147.875 661.254 174.386 719.009 174.386C762.468 174.386 805.602 159.375 848.737 144.364C891.872 129.353 935.007 114.343 978.466 114.343C1019.87 114.343 1060.98 127.967 1102.07 141.587C1147.25 156.559 1192.41 171.526 1237.92 168.381C1322.25 162.556 1405.36 94.5611 1450.52 57.6135C1451.9 56.4786 1453.25 55.373 1454.57 54.2993Z" fill="#77D5DC"/>
<path fill-rule="evenodd" clip-rule="evenodd" d="M1455.59 -4.74314L1498.4 -40.769V211.412V499.182L1433.54 511.172C1368.67 523.163 1238.94 547.143 1109.21 517.167C1050.84 503.678 992.458 479.263 934.081 454.847C862.73 425.006 791.379 395.165 720.029 385.273C624.894 372.084 529.76 394.359 434.626 416.635C400.032 424.735 365.438 432.835 330.843 439.23C201.115 463.211 71.3864 463.211 6.52209 463.211H-58.3422V211.412L-15.5317 175.386C-13.2527 173.525 -10.8628 171.567 -8.36755 169.523C37.4276 132.011 118.688 65.4472 201.115 31.2828C288.033 -4.74314 373.654 -4.74314 460.572 25.2785C489.735 35.3516 518.753 48.8046 547.722 62.2353C605.093 88.8329 662.274 115.343 720.029 115.343C763.488 115.343 806.622 100.332 849.757 85.3216C892.892 70.3108 936.027 55.3 979.486 55.3C1020.89 55.3 1062 68.9245 1103.09 82.5443C1148.27 97.5165 1193.43 112.483 1238.94 109.339C1323.27 103.514 1406.38 35.5186 1451.54 -1.42901C1452.92 -2.56392 1454.27 -3.66953 1455.59 -4.74314Z" fill="#77D5DC"/>
<path fill-rule="evenodd" clip-rule="evenodd" d="M1429.07 25.2783L1471.88 -10.7476V241.434H1429.07H1212.42H952.962H693.505H434.048H174.591H-42.0557H-84.8661L-42.0557 205.408C-39.7766 203.546 -37.3867 201.589 -34.8915 199.545C10.9037 162.032 92.1639 95.4687 174.591 61.3042C261.509 25.2783 347.13 25.2783 434.048 55.2999C463.211 65.3731 492.229 78.826 521.198 92.2568C578.569 118.854 635.75 145.365 693.505 145.365C736.964 145.365 780.098 130.354 823.233 115.343C866.368 100.332 909.503 85.3215 952.962 85.3215C994.365 85.3215 1035.47 98.946 1076.57 112.566C1121.75 127.538 1166.9 142.505 1212.42 139.36C1296.75 133.535 1379.85 65.5401 1425.01 28.5925C1426.4 27.4576 1427.75 26.352 1429.07 25.2783ZM1407.01 541.194L1471.88 529.204V241.434H1407.01H1082.69H693.505H304.319H-20.0018H-84.8661V493.233H-20.0018C44.8624 493.233 174.591 493.233 304.319 469.252C338.914 462.857 373.508 454.757 408.102 446.657C503.236 424.381 598.37 402.106 693.505 415.295C764.855 425.187 836.206 455.028 907.557 484.869C965.934 509.285 1024.31 533.7 1082.69 547.189C1212.42 577.165 1342.15 553.185 1407.01 541.194Z" fill="#47A4B8"/>
</g>
<mask id="mask1" mask-type="alpha" maskUnits="userSpaceOnUse" x="0" y="173" width="1440" height="181">
<rect x="1440" y="354" width="1440" height="181" transform="rotate(180 1440 354)" fill="#C4C4C4"/>
</mask>
<g mask="url(#mask1)">
<path fill-rule="evenodd" clip-rule="evenodd" d="M-183.785 300.701L-237.093 336.727V84.5452V-203.224L-156.323 -215.215H-156.322C-75.552 -227.205 85.9883 -251.186 247.528 -221.21C320.222 -207.721 392.915 -183.305 465.608 -158.89C554.456 -129.049 643.303 -99.2076 732.15 -89.3155C850.613 -76.1261 969.076 -98.4016 1087.54 -120.677C1130.62 -128.777 1173.69 -136.877 1216.77 -143.272C1378.31 -167.253 1539.85 -167.253 1620.62 -167.253H1701.39V84.5452L1648.09 120.571C1645.25 122.433 1642.27 124.39 1639.16 126.434C1582.14 163.947 1480.95 230.51 1378.31 264.675C1270.08 300.701 1163.46 300.701 1055.23 270.679C1018.92 260.606 982.783 247.153 946.709 233.722C875.271 207.125 804.067 180.614 732.15 180.614C678.034 180.614 624.322 195.625 570.61 210.636C516.897 225.647 463.185 240.657 409.069 240.657C357.512 240.657 306.322 227.033 255.15 213.413C198.896 198.441 142.663 183.474 85.9879 186.619C-19.0189 192.444 -122.505 260.439 -178.738 297.387C-180.465 298.521 -182.148 299.627 -183.785 300.701Z" fill="#77D5DC"/>
<path fill-rule="evenodd" clip-rule="evenodd" d="M-185.055 359.743L-238.363 395.769V143.588V-144.182L-157.593 -156.172C-76.8227 -168.163 84.7179 -192.143 246.258 -162.167C318.952 -148.678 391.645 -124.263 464.338 -99.8473C553.186 -70.0062 642.033 -40.1651 730.88 -30.273C849.343 -17.0836 967.806 -39.3591 1086.27 -61.6346C1129.35 -69.7347 1172.42 -77.8349 1215.5 -84.2298C1377.04 -108.211 1538.58 -108.211 1619.35 -108.211H1700.12V143.588L1646.82 179.614C1643.98 181.475 1641 183.433 1637.89 185.477C1580.87 222.99 1479.68 289.553 1377.04 323.717C1268.81 359.743 1162.19 359.743 1053.96 329.722C1017.65 319.648 981.513 306.195 945.439 292.765C874.001 266.167 802.797 239.657 730.88 239.657C676.764 239.657 623.052 254.668 569.34 269.678C515.627 284.689 461.915 299.7 407.799 299.7C356.242 299.7 305.052 286.076 253.88 272.456C197.626 257.484 141.393 242.517 84.7179 245.661C-20.2889 251.486 -123.775 319.481 -180.008 356.429C-181.735 357.564 -183.418 358.67 -185.055 359.743Z" fill="#77D5DC"/>
<path fill-rule="evenodd" clip-rule="evenodd" d="M-152.027 329.722L-205.335 365.748V113.566H-152.027H117.746H440.827H763.908H1086.99H1410.07H1679.84H1733.15L1679.84 149.592C1677.01 151.454 1674.03 153.411 1670.92 155.455C1613.9 192.968 1512.71 259.531 1410.07 293.696C1301.84 329.722 1195.22 329.722 1086.99 299.7C1050.67 289.627 1014.54 276.174 978.467 262.743C907.029 236.146 835.825 209.635 763.908 209.635C709.792 209.635 656.08 224.646 602.367 239.657C548.655 254.668 494.943 269.678 440.827 269.678C389.27 269.678 338.08 256.054 286.908 242.434C230.654 227.462 174.421 212.495 117.746 215.64C12.739 221.465 -90.7472 289.46 -146.98 326.408C-148.708 327.542 -150.39 328.648 -152.027 329.722ZM-124.565 -186.194L-205.335 -174.204V113.566H-124.565H279.286H763.908H1248.53H1652.38H1733.15V-138.233H1652.38C1571.61 -138.233 1410.07 -138.233 1248.53 -114.252C1205.45 -107.857 1162.37 -99.7567 1119.3 -91.6565C1000.83 -69.381 882.371 -47.1056 763.908 -60.295C675.061 -70.1871 586.213 -100.028 497.366 -129.869C424.673 -154.285 351.98 -178.7 279.286 -192.189C117.746 -222.165 -43.7949 -198.185 -124.565 -186.194Z" fill="#47A4B8"/>
</g>
</svg>
