<svg width="1440" height="361" viewBox="0 0 1440 361" fill="none" xmlns="http://www.w3.org/2000/svg">
<mask id="mask0" mask-type="alpha" maskUnits="userSpaceOnUse" x="0" y="0" width="1440" height="181">
<rect width="1440" height="181" fill="#C4C4C4"/>
</mask>
<g mask="url(#mask0)">
<path fill-rule="evenodd" clip-rule="evenodd" d="M1463.57 53.2993L1506.38 17.2734V269.455V557.224L1441.52 569.215C1376.65 581.205 1246.92 605.186 1117.19 575.21C1058.82 561.721 1000.44 537.305 942.061 512.89C870.71 483.049 799.359 453.208 728.009 443.316C632.874 430.126 537.74 452.402 442.606 474.677C408.012 482.777 373.418 490.877 338.823 497.272C209.095 521.253 79.3663 521.253 14.5021 521.253H-50.3622V269.455L-7.55176 233.429C-5.27271 231.567 -2.88281 229.61 -0.387573 227.566C45.4076 190.053 126.668 123.49 209.095 89.3252C296.013 53.2993 381.634 53.2993 468.552 83.3209C497.715 93.3941 526.733 106.847 555.702 120.278C613.073 146.875 670.254 173.386 728.009 173.386C771.468 173.386 814.602 158.375 857.737 143.364C900.872 128.353 944.007 113.343 987.466 113.343C1028.87 113.343 1069.98 126.967 1111.07 140.587C1156.25 155.559 1201.41 170.526 1246.92 167.381C1331.25 161.556 1414.36 93.5611 1459.52 56.6135C1460.9 55.4786 1462.25 54.373 1463.57 53.2993Z" fill="#77D5DC"/>
<path fill-rule="evenodd" clip-rule="evenodd" d="M1464.59 -5.74314L1507.4 -41.769V210.412V498.182L1442.54 510.172C1377.67 522.163 1247.94 546.143 1118.21 516.167C1059.84 502.678 1001.46 478.263 943.081 453.847C871.73 424.006 800.379 394.165 729.029 384.273C633.894 371.084 538.76 393.359 443.626 415.635C409.032 423.735 374.438 431.835 339.843 438.23C210.115 462.211 80.3864 462.211 15.5221 462.211H-49.3422V210.412L-6.53174 174.386C-4.25269 172.525 -1.86279 170.567 0.632446 168.523C46.4276 131.011 127.688 64.4472 210.115 30.2828C297.033 -5.74314 382.654 -5.74314 469.572 24.2785C498.735 34.3516 527.753 47.8046 556.722 61.2353C614.093 87.8329 671.274 114.343 729.029 114.343C772.488 114.343 815.622 99.3324 858.757 84.3216C901.892 69.3108 945.027 54.3 988.486 54.3C1029.89 54.3 1071 67.9245 1112.09 81.5443C1157.27 96.5165 1202.43 111.483 1247.94 108.339C1332.27 102.514 1415.38 34.5186 1460.54 -2.42901C1461.92 -3.56392 1463.27 -4.66953 1464.59 -5.74314Z" fill="#77D5DC"/>
<path fill-rule="evenodd" clip-rule="evenodd" d="M1438.07 24.2783L1480.88 -11.7476V240.434H1438.07H1221.42H961.962H702.505H443.048H183.591H-33.0557H-75.8661L-33.0557 204.408C-30.7766 202.546 -28.3867 200.589 -25.8915 198.545C19.9037 161.032 101.164 94.4687 183.591 60.3042C270.509 24.2783 356.13 24.2783 443.048 54.2999C472.211 64.3731 501.229 77.826 530.198 91.2568C587.569 117.854 644.75 144.365 702.505 144.365C745.964 144.365 789.098 129.354 832.233 114.343C875.368 99.3323 918.503 84.3215 961.962 84.3215C1003.37 84.3215 1044.47 97.946 1085.57 111.566C1130.75 126.538 1175.9 141.505 1221.42 138.36C1305.75 132.535 1388.85 64.5401 1434.01 27.5925C1435.4 26.4576 1436.75 25.352 1438.07 24.2783ZM1416.01 540.194L1480.88 528.204V240.434H1416.01H1091.69H702.505H313.319H-11.0018H-75.8661V492.233H-11.0018C53.8624 492.233 183.591 492.233 313.319 468.252C347.914 461.857 382.508 453.757 417.102 445.657C512.236 423.381 607.37 401.106 702.505 414.295C773.855 424.187 845.206 454.028 916.557 483.869C974.934 508.285 1033.31 532.7 1091.69 546.189C1221.42 576.165 1351.15 552.185 1416.01 540.194Z" fill="#47A4B8"/>
</g>
<mask id="mask1" mask-type="alpha" maskUnits="userSpaceOnUse" x="0" y="181" width="1440" height="180">
<rect x="1440" y="361" width="1440" height="180" transform="rotate(180 1440 361)" fill="#C4C4C4"/>
</mask>
<g mask="url(#mask1)">
<path fill-rule="evenodd" clip-rule="evenodd" d="M-221.785 308.701L-275.093 344.727V92.5452V-195.224L-194.323 -207.215H-194.322C-113.552 -219.205 47.9883 -243.186 209.528 -213.21C282.222 -199.721 354.915 -175.305 427.608 -150.89C516.456 -121.049 605.303 -91.2076 694.15 -81.3155C812.613 -68.1261 931.076 -90.4016 1049.54 -112.677C1092.62 -120.777 1135.69 -128.877 1178.77 -135.272C1340.31 -159.253 1501.85 -159.253 1582.62 -159.253H1663.39V92.5452L1610.09 128.571C1607.25 130.433 1604.27 132.39 1601.16 134.434C1544.14 171.947 1442.95 238.51 1340.31 272.675C1232.08 308.701 1125.46 308.701 1017.23 278.679C980.916 268.606 944.783 255.153 908.709 241.722C837.271 215.125 766.067 188.614 694.15 188.614C640.034 188.614 586.322 203.625 532.61 218.636C478.897 233.647 425.185 248.657 371.069 248.657C319.512 248.657 268.322 235.033 217.15 221.413C160.896 206.441 104.663 191.474 47.9879 194.619C-57.0189 200.444 -160.505 268.439 -216.738 305.387C-218.465 306.521 -220.148 307.627 -221.785 308.701Z" fill="#77D5DC"/>
<path fill-rule="evenodd" clip-rule="evenodd" d="M-223.055 367.743L-276.363 403.769V151.588V-136.182L-195.593 -148.172C-114.823 -160.163 46.7179 -184.143 208.258 -154.167C280.952 -140.678 353.645 -116.263 426.338 -91.8473C515.186 -62.0062 604.033 -32.1651 692.88 -22.273C811.343 -9.08359 929.806 -31.3591 1048.27 -53.6346C1091.35 -61.7347 1134.42 -69.8349 1177.5 -76.2298C1339.04 -100.211 1500.58 -100.211 1581.35 -100.211H1662.12V151.588L1608.82 187.614C1605.98 189.475 1603 191.433 1599.89 193.477C1542.87 230.99 1441.68 297.553 1339.04 331.717C1230.81 367.743 1124.19 367.743 1015.96 337.722C979.646 327.648 943.513 314.195 907.439 300.765C836.001 274.167 764.797 247.657 692.88 247.657C638.764 247.657 585.052 262.668 531.34 277.678C477.627 292.689 423.915 307.7 369.799 307.7C318.242 307.7 267.052 294.076 215.88 280.456C159.626 265.484 103.393 250.517 46.7179 253.661C-58.2889 259.486 -161.775 327.481 -218.008 364.429C-219.735 365.564 -221.418 366.67 -223.055 367.743Z" fill="#77D5DC"/>
<path fill-rule="evenodd" clip-rule="evenodd" d="M-190.027 337.722L-243.335 373.748V121.566H-190.027H79.7457H402.827H725.908H1048.99H1372.07H1641.84H1695.15L1641.84 157.592C1639.01 159.454 1636.03 161.411 1632.92 163.455C1575.9 200.968 1474.71 267.531 1372.07 301.696C1263.84 337.722 1157.22 337.722 1048.99 307.7C1012.67 297.627 976.541 284.174 940.467 270.743C869.029 244.146 797.825 217.635 725.908 217.635C671.792 217.635 618.08 232.646 564.367 247.657C510.655 262.668 456.943 277.678 402.827 277.678C351.27 277.678 300.08 264.054 248.908 250.434C192.654 235.462 136.421 220.495 79.7457 223.64C-25.261 229.465 -128.747 297.46 -184.98 334.408C-186.708 335.542 -188.39 336.648 -190.027 337.722ZM-162.565 -178.194L-243.335 -166.204V121.566H-162.565H241.286H725.908H1210.53H1614.38H1695.15V-130.233H1614.38C1533.61 -130.233 1372.07 -130.233 1210.53 -106.252C1167.45 -99.8569 1124.37 -91.7567 1081.3 -83.6565C962.834 -61.381 844.371 -39.1056 725.908 -52.295C637.061 -62.1871 548.213 -92.0282 459.366 -121.869C386.673 -146.285 313.98 -170.7 241.286 -184.189C79.7457 -214.165 -81.7949 -190.185 -162.565 -178.194Z" fill="#47A4B8"/>
</g>
</svg>
