<svg width="1440" height="376" viewBox="0 0 1440 376" fill="none" xmlns="http://www.w3.org/2000/svg">
<mask id="mask0" mask-type="alpha" maskUnits="userSpaceOnUse" x="0" y="0" width="1440" height="376">
<rect width="1440" height="376" fill="#C4C4C4"/>
</mask>
<g mask="url(#mask0)">
<path fill-rule="evenodd" clip-rule="evenodd" d="M1495.59 54.9255L1537.99 16.3011V286.672V595.198L1473.75 608.053C1409.51 620.908 1281.03 646.619 1152.56 614.481C1094.74 600.019 1036.93 573.842 979.112 547.666C908.449 515.672 837.786 483.679 767.124 473.073C672.907 458.932 578.69 482.814 484.473 506.697C450.212 515.381 415.952 524.065 381.691 530.922C253.213 556.632 124.735 556.632 60.4967 556.632H-3.74219V286.672L38.6555 248.048C40.9126 246.052 43.2794 243.953 45.7505 241.762C91.104 201.543 171.581 130.179 253.213 93.5499C339.293 54.9255 424.089 54.9255 510.168 87.1125C539.051 97.9122 567.789 112.336 596.479 126.735C653.296 155.251 709.926 183.673 767.124 183.673C810.164 183.673 852.883 167.58 895.602 151.486C938.32 135.393 981.039 119.299 1024.08 119.299C1065.08 119.299 1105.8 133.907 1146.5 148.509C1191.24 164.561 1235.96 180.607 1281.03 177.236C1364.55 170.991 1446.85 98.0912 1491.58 58.4786C1492.95 57.2619 1494.29 56.0765 1495.59 54.9255Z" fill="#77D5DC"/>
<path fill-rule="evenodd" clip-rule="evenodd" d="M1496.6 -8.3756L1539 -47V223.371H1496.6H1282.04H1025.09H768.134H511.179H254.223H39.6658H-2.73193L39.6658 184.746C41.9229 182.751 44.2897 180.652 46.7607 178.461C92.1143 138.242 172.591 66.8775 254.223 30.2488C340.303 -8.3756 425.099 -8.3756 511.179 23.8114C540.061 34.6111 568.799 49.0345 597.489 63.4339C654.306 91.95 710.936 120.372 768.134 120.372C811.174 120.372 853.893 104.279 896.612 88.1854C939.331 72.0919 982.049 55.9984 1025.09 55.9984C1066.09 55.9984 1106.81 70.6056 1147.51 85.2078C1192.25 101.26 1236.97 117.306 1282.04 113.935C1365.56 107.689 1447.86 34.7901 1492.59 -4.82242C1493.96 -6.03918 1495.3 -7.22454 1496.6 -8.3756ZM-2.73193 223.371V493.331H61.507C125.746 493.331 254.223 493.331 382.701 467.621C416.962 460.765 451.223 452.08 485.483 443.396C579.7 419.514 673.917 395.631 768.134 409.772C838.797 420.378 909.459 452.371 980.122 484.365C1037.94 510.541 1095.75 536.718 1153.57 551.18C1282.04 583.318 1410.52 557.607 1474.76 544.752L1539 531.897V223.371H1474.76H1153.57H768.134H382.701H61.507H-2.73193Z" fill="#77D5DC"/>
<path fill-rule="evenodd" clip-rule="evenodd" d="M1470.33 23.8117L1512.73 -14.8127V255.557V255.558V564.083L1448.49 576.939C1384.25 589.794 1255.78 615.504 1127.3 583.366C1069.48 568.904 1011.67 542.728 953.854 516.551C883.191 484.558 812.529 452.564 741.866 441.958C647.649 427.818 553.432 451.7 459.215 475.582C424.954 484.266 390.694 492.951 356.433 499.807C227.955 525.518 99.4777 525.518 35.2389 525.518H-29V255.558L13.3977 216.934C15.6548 214.938 18.0216 212.839 20.4927 210.648C65.8462 170.429 146.323 99.0647 227.955 62.4361C314.035 23.8117 398.831 23.8117 484.911 55.9987C513.793 66.7984 542.531 81.2217 571.221 95.6212C628.038 124.137 684.668 152.56 741.866 152.56C784.906 152.56 827.625 136.466 870.344 120.373C913.062 104.279 955.781 88.1857 998.821 88.1857C1039.83 88.1857 1080.54 102.793 1121.24 117.395C1165.98 133.447 1210.7 149.493 1255.78 146.122C1339.29 139.877 1421.6 66.9774 1466.32 27.3648C1467.69 26.1481 1469.03 24.9627 1470.33 23.8117Z" fill="#47A4B8"/>
</g>
</svg>
