<svg width="469" height="60" viewBox="0 0 469 60" fill="none" xmlns="http://www.w3.org/2000/svg">
<path d="M0 23.7869H468.869V-2.09808e-05H0V23.7869Z" fill="#8A6961"/>
<path d="M0 23.7869V13.1601H209.473L0 23.7869Z" fill="#755953"/>
<path d="M468.869 13.1602H209.473L468.869 0.000115395V13.1602Z" fill="#755953"/>
<path d="M468.869 23.7869H0L209.473 13.1601H468.869V23.7869Z" fill="#644C47"/>
<path d="M66.8775 23.7868V56.0407C66.8775 57.7529 65.489 59.1406 63.7769 59.1406H44.3001C42.5879 59.1406 41.2002 57.7529 41.2002 56.0407V23.7868H66.8775Z" fill="#696969"/>
<path d="M74.0937 31.2268H33.9832V23.7869H74.0937V31.2268Z" fill="#4F4F4F"/>
<path d="M54.038 50.6035C51.2625 50.6035 49.0129 48.3539 49.0129 45.5777C49.0129 45.2601 49.0422 44.9488 49.0983 44.6474C49.535 46.9793 51.5801 48.743 54.038 48.743C56.496 48.743 58.5418 46.9793 58.9777 44.6474C59.0346 44.9488 59.0638 45.2601 59.0638 45.5777C59.0638 48.3539 56.8142 50.6035 54.038 50.6035Z" fill="#595959"/>
<path d="M59.0638 43.7173C59.0638 46.4936 56.8142 48.7432 54.038 48.7432C51.2625 48.7432 49.0129 46.4936 49.0129 43.7173C49.0129 40.9426 51.2625 38.6923 54.038 38.6923C56.8142 38.6923 59.0638 40.9426 59.0638 43.7173Z" fill="#A6A6A6"/>
<path d="M54.038 47.9727C53.7412 47.9727 53.5013 47.7328 53.5013 47.4368V39.9991C53.5013 39.7024 53.7412 39.4617 54.038 39.4617C54.3355 39.4617 54.5754 39.7024 54.5754 39.9991V47.4368C54.5754 47.7328 54.3355 47.9727 54.038 47.9727Z" fill="#858585"/>
<path d="M418.195 23.7868V56.0407C418.195 57.7529 416.807 59.1406 415.095 59.1406H395.618C393.906 59.1406 392.518 57.7529 392.518 56.0407V23.7868H418.195Z" fill="#696969"/>
<path d="M425.411 31.2268H385.301V23.7869H425.411V31.2268Z" fill="#4F4F4F"/>
<path d="M405.357 50.6035C402.581 50.6035 400.331 48.3539 400.331 45.5777C400.331 45.2601 400.361 44.9488 400.417 44.6474C400.853 46.9793 402.899 48.743 405.357 48.743C407.815 48.743 409.86 46.9793 410.296 44.6474C410.353 44.9488 410.382 45.2601 410.382 45.5777C410.382 48.3539 408.133 50.6035 405.357 50.6035Z" fill="#595959"/>
<path d="M410.382 43.7173C410.382 46.4936 408.133 48.7432 405.357 48.7432C402.581 48.7432 400.331 46.4936 400.331 43.7173C400.331 40.9426 402.581 38.6923 405.357 38.6923C408.133 38.6923 410.382 40.9426 410.382 43.7173Z" fill="#A6A6A6"/>
<path d="M405.357 47.9727C405.061 47.9727 404.819 47.7328 404.819 47.4368V39.9991C404.819 39.7024 405.061 39.4617 405.357 39.4617C405.653 39.4617 405.894 39.7024 405.894 39.9991V47.4368C405.894 47.7328 405.653 47.9727 405.357 47.9727Z" fill="#858585"/>
</svg>
