<svg width="1440" height="385" viewBox="0 0 1440 385" fill="none" xmlns="http://www.w3.org/2000/svg">
<mask id="mask0" mask-type="alpha" maskUnits="userSpaceOnUse" x="0" y="204" width="1440" height="181">
<rect width="1440" height="181" transform="matrix(1 0 0 -1 0 385)" fill="#C4C4C4"/>
</mask>
<g mask="url(#mask0)">
<path fill-rule="evenodd" clip-rule="evenodd" d="M1592.79 331.701L1646.09 367.727V115.545V-172.224L1565.32 -184.215H1565.32C1484.55 -196.205 1323.01 -220.186 1161.47 -190.21C1088.78 -176.721 1016.09 -152.305 943.392 -127.89C854.545 -98.0487 765.697 -68.2076 676.85 -58.3155C558.387 -45.1261 439.924 -67.4016 321.461 -89.6771C278.383 -97.7773 235.306 -105.877 192.228 -112.272C30.6877 -136.253 -130.853 -136.253 -211.623 -136.253H-292.393V115.545L-239.085 151.571C-236.247 153.433 -233.271 155.39 -230.164 157.434C-173.139 194.947 -71.9518 261.51 30.6877 295.675C138.92 331.701 245.537 331.701 353.769 301.679C390.084 291.606 426.217 278.153 462.291 264.722C533.729 238.125 604.933 211.614 676.85 211.614C730.966 211.614 784.678 226.625 838.391 241.636C892.103 256.647 945.815 271.657 999.931 271.657C1051.49 271.657 1102.68 258.033 1153.85 244.413C1210.1 229.441 1266.34 214.474 1323.01 217.619C1428.02 223.444 1531.51 291.439 1587.74 328.387C1589.47 329.521 1591.15 330.627 1592.79 331.701Z" fill="#77D5DC"/>
<path fill-rule="evenodd" clip-rule="evenodd" d="M1594.05 390.743L1647.36 426.769V174.588V-113.182L1566.59 -125.172C1485.82 -137.163 1324.28 -161.143 1162.74 -131.167C1090.05 -117.678 1017.35 -93.2627 944.662 -68.8473C855.814 -39.0062 766.967 -9.1651 678.12 0.72699C559.657 13.9164 441.194 -8.35907 322.731 -30.6346C279.653 -38.7347 236.576 -46.8349 193.498 -53.2298C31.9575 -77.2106 -129.583 -77.2106 -210.353 -77.2106H-291.124V174.588L-237.815 210.614C-234.977 212.475 -232.001 214.433 -228.894 216.477C-171.869 253.99 -70.682 320.553 31.9575 354.717C140.19 390.743 246.806 390.743 355.039 360.722C391.354 350.648 427.487 337.195 463.561 323.765C534.999 297.167 606.203 270.657 678.12 270.657C732.236 270.657 785.948 285.668 839.66 300.678C893.373 315.689 947.085 330.7 1001.2 330.7C1052.76 330.7 1103.95 317.076 1155.12 303.456C1211.37 288.484 1267.61 273.517 1324.28 276.661C1429.29 282.486 1532.78 350.481 1589.01 387.429C1590.74 388.564 1592.42 389.67 1594.05 390.743Z" fill="#77D5DC"/>
<path fill-rule="evenodd" clip-rule="evenodd" d="M1561.03 360.722L1614.34 396.748V144.566H1561.03H1291.25H968.173H645.092H322.011H-1.07031H-270.843H-324.151L-270.843 180.592C-268.005 182.454 -265.029 184.411 -261.922 186.455C-204.897 223.968 -103.71 290.531 -1.07031 324.696C107.162 360.722 213.779 360.722 322.011 330.7C358.326 320.627 394.459 307.174 430.533 293.743C501.971 267.146 573.175 240.635 645.092 240.635C699.208 240.635 752.92 255.646 806.633 270.657C860.345 285.668 914.057 300.678 968.173 300.678C1019.73 300.678 1070.92 287.054 1122.09 273.434C1178.35 258.462 1234.58 243.495 1291.25 246.64C1396.26 252.465 1499.75 320.46 1555.98 357.408C1557.71 358.542 1559.39 359.648 1561.03 360.722ZM1533.57 -155.194L1614.34 -143.204V144.566H1533.57H1129.71H645.092H160.47H-243.381H-324.151V-107.233H-243.381C-162.611 -107.233 -1.07031 -107.233 160.47 -83.2518C203.548 -76.8569 246.625 -68.7567 289.703 -60.6565C408.166 -38.381 526.629 -16.1056 645.092 -29.295C733.939 -39.1871 822.787 -69.0282 911.634 -98.8692C984.327 -123.285 1057.02 -147.7 1129.71 -161.189C1291.25 -191.165 1452.79 -167.185 1533.57 -155.194Z" fill="#47A4B8"/>
</g>
<mask id="mask1" mask-type="alpha" maskUnits="userSpaceOnUse" x="0" y="0" width="1440" height="204">
<rect width="1440" height="204" transform="matrix(-1 0 0 1 1440 0)" fill="#C4C4C4"/>
</mask>
<g mask="url(#mask1)">
<path fill-rule="evenodd" clip-rule="evenodd" d="M15.4309 76.2994L-27.3795 40.2735V292.455V580.224L37.4847 592.215C102.349 604.205 232.077 628.186 361.806 598.21C420.184 584.721 478.561 560.305 536.939 535.89C608.29 506.049 679.641 476.208 750.991 466.316C846.125 453.126 941.26 475.402 1036.39 497.677C1070.99 505.777 1105.58 513.877 1140.18 520.272C1269.91 544.253 1399.63 544.253 1464.5 544.253H1529.36V292.455L1486.55 256.429C1484.27 254.567 1481.88 252.61 1479.39 250.566C1433.59 213.053 1352.33 146.49 1269.91 112.325C1182.99 76.2994 1097.37 76.2994 1010.45 106.321C981.285 116.394 952.267 129.847 923.297 143.278C865.927 169.875 808.746 196.386 750.991 196.386C707.532 196.386 664.398 181.375 621.263 166.364C578.128 151.353 534.993 136.343 491.534 136.343C450.131 136.343 409.022 149.967 367.926 163.587C322.751 178.559 277.592 193.526 232.077 190.381C147.75 184.556 64.6429 116.561 19.4838 79.6135C18.0967 78.4786 16.7453 77.373 15.4309 76.2994Z" fill="#77D5DC"/>
<path fill-rule="evenodd" clip-rule="evenodd" d="M14.4109 17.2569L-28.3995 -18.769V233.412V521.182L36.4647 533.172C101.329 545.163 231.057 569.143 360.786 539.167C419.164 525.678 477.541 501.263 535.919 476.847C607.27 447.006 678.621 417.165 749.971 407.273C845.105 394.084 940.24 416.359 1035.37 438.635C1069.97 446.735 1104.56 454.835 1139.16 461.23C1268.89 485.211 1398.61 485.211 1463.48 485.211H1528.34V233.412L1485.53 197.386C1483.25 195.525 1480.86 193.567 1478.37 191.523C1432.57 154.011 1351.31 87.4472 1268.89 53.2828C1181.97 17.2569 1096.35 17.2569 1009.43 47.2785C980.265 57.3516 951.247 70.8046 922.277 84.2353C864.907 110.833 807.726 137.343 749.971 137.343C706.512 137.343 663.378 122.332 620.243 107.322C577.108 92.3108 533.973 77.3 490.514 77.3C449.111 77.3 408.002 90.9245 366.906 104.544C321.731 119.516 276.572 134.483 231.057 131.339C146.73 125.514 63.6229 57.5186 18.4638 20.571C17.0766 19.4361 15.7253 18.3305 14.4109 17.2569Z" fill="#77D5DC"/>
<path fill-rule="evenodd" clip-rule="evenodd" d="M40.9348 47.2784L-1.87561 11.2525V263.434H40.9348H257.581H517.038H776.495H1035.95H1295.41H1512.06H1554.87L1512.06 227.408C1509.78 225.546 1507.39 223.589 1504.89 221.545C1459.1 184.032 1377.84 117.469 1295.41 83.3043C1208.49 47.2784 1122.87 47.2784 1035.95 77.3C1006.79 87.3731 977.771 100.826 948.801 114.257C891.431 140.854 834.25 167.365 776.495 167.365C733.036 167.365 689.901 152.354 646.767 137.343C603.632 122.332 560.497 107.322 517.038 107.322C475.635 107.322 434.525 120.946 393.43 134.566C348.255 149.538 303.096 164.505 257.581 161.36C173.254 155.535 90.1468 87.5401 44.9877 50.5925C43.6006 49.4576 42.2492 48.352 40.9348 47.2784ZM62.9886 563.194L-1.87561 551.204V263.434H62.9886H387.31H776.495H1165.68H1490H1554.87V515.233H1490C1425.14 515.233 1295.41 515.233 1165.68 491.252C1131.09 484.857 1096.49 476.757 1061.9 468.657C966.764 446.381 871.629 424.106 776.495 437.295C705.145 447.187 633.794 477.028 562.443 506.869C504.065 531.285 445.688 555.7 387.31 569.189C257.581 599.165 127.853 575.185 62.9886 563.194Z" fill="#47A4B8"/>
</g>
</svg>
