<svg width="1282" height="390" viewBox="0 0 1282 390" fill="none" xmlns="http://www.w3.org/2000/svg">
<mask id="mask0" mask-type="alpha" maskUnits="userSpaceOnUse" x="0" y="0" width="1282" height="390">
<rect width="1282" height="390" fill="#C4C4C4"/>
</mask>
<g mask="url(#mask0)">
<path fill-rule="evenodd" clip-rule="evenodd" d="M1268.96 41.7945L1305.14 18.3777V182.296H1268.96H1085.87H866.61H647.345H428.081H208.817H25.7314H-10.4471L25.7314 158.879C27.6575 157.669 29.6772 156.396 31.786 155.068C70.4871 130.684 139.159 87.4182 208.817 65.2114C282.271 41.7945 354.628 41.7945 428.081 61.3086C452.727 67.8561 477.25 76.6005 501.731 85.3305C550.214 102.619 598.538 119.851 647.345 119.851C684.072 119.851 720.525 110.094 756.977 100.337C793.43 90.5796 829.883 80.8226 866.61 80.8226C901.599 80.8226 936.34 89.6785 971.069 98.5314C1009.25 108.263 1047.41 117.992 1085.87 115.948C1157.14 112.161 1227.37 67.9646 1265.53 43.9487C1266.71 43.211 1267.85 42.4924 1268.96 41.7945ZM-10.4471 182.296V345.965H44.3689C99.1849 345.965 208.817 345.965 318.449 330.377C347.684 326.22 376.92 320.955 406.155 315.69C486.552 301.211 566.949 286.732 647.345 295.305C707.643 301.735 767.941 321.132 828.238 340.528C877.573 356.398 926.907 372.268 976.242 381.036C1085.87 400.521 1195.51 384.933 1250.32 377.14L1305.14 369.346V182.296H1250.32H976.242H647.345H318.449H44.3689H-10.4471Z" fill="#77D5DC"/>
<path fill-rule="evenodd" clip-rule="evenodd" d="M1269.82 3.41684L1306 -20V143.918H1269.82H1086.74H867.472H648.207H428.943H209.679H26.5935H-9.58508L26.5935 120.501C28.5195 119.291 30.5393 118.019 32.6481 116.69C71.3491 92.3067 140.021 49.0405 209.679 26.8337C283.133 3.41684 355.49 3.41684 428.943 22.9309C453.589 29.4784 478.112 38.2229 502.593 46.9528C551.076 64.2413 599.4 81.473 648.207 81.473C684.934 81.473 721.387 71.716 757.84 61.9589C794.292 52.2019 830.745 42.4449 867.472 42.4449C902.461 42.4449 937.202 51.3008 971.931 60.1537C1010.11 69.8856 1048.27 79.6139 1086.74 77.5702C1158 73.7837 1228.23 29.587 1266.4 5.57103C1267.57 4.83334 1268.71 4.11469 1269.82 3.41684ZM1251.18 338.762L1306 330.968V143.918H1251.18H977.104H648.207H319.311H45.231H-9.58508V307.587H45.231C100.047 307.587 209.679 307.587 319.311 291.999C348.546 287.843 377.782 282.578 407.017 277.313C487.414 262.833 567.811 248.354 648.207 256.928C708.505 263.357 768.803 282.754 829.1 302.151C878.435 318.021 927.769 333.891 977.104 342.659C1086.74 362.143 1196.37 346.556 1251.18 338.762Z" fill="#77D5DC"/>
<path fill-rule="evenodd" clip-rule="evenodd" d="M1247.41 22.931L1283.59 -0.48584V163.432L1283.59 350.482L1228.77 358.276C1173.95 366.07 1064.32 381.657 954.689 362.173C905.354 353.405 856.02 337.535 806.685 321.665C746.388 302.268 686.09 282.871 625.792 276.442C545.396 267.868 464.999 282.348 384.602 296.827C355.367 302.092 326.131 307.357 296.896 311.513C187.264 327.101 77.6321 327.101 22.816 327.101H-32V163.432L4.17859 140.015C6.10461 138.805 8.12439 137.533 10.2332 136.204C48.9342 111.821 117.606 68.5547 187.264 46.3478C260.718 22.931 333.075 22.931 406.528 42.445C431.174 48.9926 455.697 57.737 480.178 66.467C528.661 83.7554 576.985 100.987 625.793 100.987C662.519 100.987 698.972 91.2301 735.425 81.4731C771.877 71.7161 808.33 61.9591 845.057 61.9591C880.046 61.9591 914.787 70.815 949.517 79.6679C987.694 89.3998 1025.86 99.128 1064.32 97.0843C1135.59 93.2978 1205.82 49.1011 1243.98 25.0852C1245.15 24.3475 1246.3 23.6289 1247.41 22.931Z" fill="#47A4B8"/>
</g>
</svg>
