<svg width="973" height="385" viewBox="0 0 973 385" fill="none" xmlns="http://www.w3.org/2000/svg">
<mask id="mask0" mask-type="alpha" maskUnits="userSpaceOnUse" x="0" y="0" width="973" height="385">
<rect width="973" height="385" fill="#C4C4C4"/>
</mask>
<g mask="url(#mask0)">
<path fill-rule="evenodd" clip-rule="evenodd" d="M-21.9071 314.182L21.1801 330.686C64.2672 347.189 150.442 380.196 236.616 380.196C322.79 380.196 408.965 347.189 495.139 347.189C581.313 347.189 667.488 380.196 753.662 352.69C839.836 325.185 926.01 237.166 969.098 193.157L1012.18 149.148V116.141H969.098C926.01 116.141 839.836 116.141 753.662 116.141C667.488 116.141 581.313 116.141 495.139 116.141C408.965 116.141 322.79 116.141 236.616 116.141C150.442 116.141 64.2672 116.141 21.1801 116.141H-21.9071V314.182Z" fill="#77D5DC"/>
<path fill-rule="evenodd" clip-rule="evenodd" d="M0.260071 298.799L43.3472 315.302C86.4344 331.806 172.609 364.813 258.783 364.813C344.957 364.813 431.132 331.806 517.306 331.806C603.48 331.806 689.655 364.813 775.829 337.307C862.003 309.801 948.178 221.783 991.265 177.774L1034.35 133.765V100.758H991.265C948.178 100.758 862.003 100.758 775.829 100.758C689.655 100.758 603.48 100.758 517.306 100.758C431.132 100.758 344.957 100.758 258.783 100.758C172.609 100.758 86.4344 100.758 43.3472 100.758H0.260071V298.799Z" fill="#47A4B8"/>
<path fill-rule="evenodd" clip-rule="evenodd" d="M-198.768 165.683L-172.096 162.036C-145.425 158.39 -92.0815 151.097 -38.7383 118.278C14.6048 85.4584 67.9479 27.1134 121.291 8.88054C174.634 -9.35229 227.977 12.5271 281.32 34.4065C334.664 56.2859 388.007 78.1653 441.35 78.1653C494.693 78.1653 548.036 56.2859 601.379 41.6996C654.722 27.1134 708.065 19.8202 761.409 23.4668C814.752 27.1134 868.095 41.6996 921.438 34.4065C974.781 27.1134 1028.12 -2.05916 1054.8 -16.6454L1081.47 -31.2317V187.562H1054.8C1028.12 187.562 974.781 187.562 921.438 187.562C868.095 187.562 814.752 187.562 761.409 187.562C708.065 187.562 654.722 187.562 601.379 187.562C548.036 187.562 494.693 187.562 441.35 187.562C388.007 187.562 334.664 187.562 281.32 187.562C227.977 187.562 174.634 187.562 121.291 187.562C67.9479 187.562 14.6048 187.562 -38.7383 187.562C-92.0815 187.562 -145.425 187.562 -172.096 187.562H-198.768V165.683Z" fill="#77D5DC"/>
<path fill-rule="evenodd" clip-rule="evenodd" d="M-215.866 176.385L-189.194 172.738C-162.523 169.092 -109.18 161.799 -55.8366 128.979C-2.4935 96.1603 50.8496 37.8153 104.193 19.5824C157.536 1.34961 210.879 23.229 264.222 45.1084C317.565 66.9878 370.908 88.8672 424.251 88.8672C477.595 88.8672 530.938 66.9878 584.281 52.4015C637.624 37.8153 690.967 30.5221 744.31 34.1687C797.653 37.8153 850.996 52.4015 904.34 45.1084C957.683 37.8153 1011.03 8.64274 1037.7 -5.94352L1064.37 -20.5298V198.264H1037.7C1011.03 198.264 957.683 198.264 904.34 198.264C850.996 198.264 797.653 198.264 744.31 198.264C690.967 198.264 637.624 198.264 584.281 198.264C530.938 198.264 477.595 198.264 424.251 198.264C370.908 198.264 317.565 198.264 264.222 198.264C210.879 198.264 157.536 198.264 104.193 198.264C50.8496 198.264 -2.4935 198.264 -55.8366 198.264C-109.18 198.264 -162.523 198.264 -189.194 198.264H-215.866V176.385Z" fill="#47A4B8"/>
</g>
</svg>
