<svg width="3407" height="1130" viewBox="0 0 3407 1130" fill="none" xmlns="http://www.w3.org/2000/svg">
<mask id="mask0" mask-type="alpha" maskUnits="userSpaceOnUse" x="0" y="0" width="3407" height="1130">
<rect width="3406.84" height="1130" fill="#C4C4C4"/>
</mask>
<g mask="url(#mask0)">
<path fill-rule="evenodd" clip-rule="evenodd" d="M-76.7053 928.494L74.159 977.402C225.023 1026.31 526.752 1124.13 828.481 1124.13C1130.21 1124.13 1431.94 1026.31 1733.67 1026.31C2035.4 1026.31 2337.12 1124.13 2638.85 1042.61C2940.58 961.1 3242.31 700.256 3393.17 569.835L3544.04 439.413V341.597H3393.17C3242.31 341.597 2940.58 341.597 2638.85 341.597C2337.12 341.597 2035.4 341.597 1733.67 341.597C1431.94 341.597 1130.21 341.597 828.481 341.597C526.752 341.597 225.023 341.597 74.159 341.597H-76.7053V928.494Z" fill="#77D5DC"/>
<path fill-rule="evenodd" clip-rule="evenodd" d="M0.910278 882.906L151.775 931.814C302.639 980.722 604.368 1078.54 906.096 1078.54C1207.82 1078.54 1509.55 980.722 1811.28 980.722C2113.01 980.722 2414.74 1078.54 2716.47 997.024C3018.2 915.511 3319.93 654.668 3470.79 524.246L3621.65 393.825V296.008H3470.79C3319.93 296.008 3018.2 296.008 2716.47 296.008C2414.74 296.008 2113.01 296.008 1811.28 296.008C1509.55 296.008 1207.82 296.008 906.096 296.008C604.368 296.008 302.639 296.008 151.775 296.008H0.910278V882.906Z" fill="#47A4B8"/>
<path fill-rule="evenodd" clip-rule="evenodd" d="M-695.96 488.414L-602.573 477.607C-509.186 466.8 -322.412 445.187 -135.637 347.927C51.1368 250.667 237.911 77.7609 424.685 23.7276C611.46 -30.3057 798.234 34.5343 985.008 99.3742C1171.78 164.214 1358.56 229.054 1545.33 229.054C1732.11 229.054 1918.88 164.214 2105.65 120.987C2292.43 77.7609 2479.2 56.1476 2665.98 66.9542C2852.75 77.7609 3039.53 120.987 3226.3 99.3742C3413.07 77.7609 3599.85 -8.69234 3693.24 -51.919L3786.62 -95.1456V553.254H3693.24C3599.85 553.254 3413.07 553.254 3226.3 553.254C3039.53 553.254 2852.75 553.254 2665.98 553.254C2479.2 553.254 2292.43 553.254 2105.65 553.254C1918.88 553.254 1732.11 553.254 1545.33 553.254C1358.56 553.254 1171.78 553.254 985.008 553.254C798.234 553.254 611.46 553.254 424.685 553.254C237.911 553.254 51.1368 553.254 -135.637 553.254C-322.412 553.254 -509.186 553.254 -602.573 553.254H-695.96V488.414Z" fill="#77D5DC"/>
<path fill-rule="evenodd" clip-rule="evenodd" d="M-755.828 520.129L-662.441 509.322C-569.054 498.515 -382.279 476.902 -195.505 379.642C-8.73072 282.382 178.044 109.476 364.818 55.4427C551.592 1.40944 738.366 66.2494 925.141 131.089C1111.92 195.929 1298.69 260.769 1485.46 260.769C1672.24 260.769 1859.01 195.929 2045.79 152.703C2232.56 109.476 2419.34 87.8627 2606.11 98.6693C2792.88 109.476 2979.66 152.703 3166.43 131.089C3353.21 109.476 3539.98 23.0227 3633.37 -20.2039L3726.76 -63.4305V584.969H3633.37C3539.98 584.969 3353.21 584.969 3166.43 584.969C2979.66 584.969 2792.88 584.969 2606.11 584.969C2419.34 584.969 2232.56 584.969 2045.79 584.969C1859.01 584.969 1672.24 584.969 1485.46 584.969C1298.69 584.969 1111.92 584.969 925.141 584.969C738.366 584.969 551.592 584.969 364.818 584.969C178.044 584.969 -8.73072 584.969 -195.505 584.969C-382.279 584.969 -569.054 584.969 -662.441 584.969H-755.828V520.129Z" fill="#47A4B8"/>
</g>
</svg>
