<svg width="1440" height="931" viewBox="0 0 1440 931" fill="none" xmlns="http://www.w3.org/2000/svg">
<mask id="mask0" mask-type="alpha" maskUnits="userSpaceOnUse" x="0" y="0" width="1440" height="931">
<rect x="1440" y="931" width="1440" height="931" transform="rotate(-180 1440 931)" fill="#C4C4C4"/>
</mask>
<g mask="url(#mask0)">
<path fill-rule="evenodd" clip-rule="evenodd" d="M1731.98 164.592L1646.23 124.644C1560.49 84.6948 1388.99 4.79714 1217.49 4.79714C1045.99 4.79714 874.497 84.6948 703 84.6948C531.503 84.6948 360.006 4.79712 188.509 71.3785C17.0116 137.96 -154.485 351.02 -240.234 457.551L-325.983 564.081V643.978H-240.234C-154.485 643.978 17.0116 643.978 188.509 643.978C360.006 643.978 531.503 643.978 703 643.978C874.497 643.978 1045.99 643.978 1217.49 643.978C1388.99 643.978 1560.49 643.978 1646.23 643.978H1731.98V164.592Z" fill="#77D5DC"/>
<path fill-rule="evenodd" clip-rule="evenodd" d="M1687.87 201.83L1602.12 161.881C1516.37 121.932 1344.87 42.0348 1173.38 42.0348C1001.88 42.0348 830.382 121.932 658.885 121.932C487.388 121.932 315.891 42.0348 144.394 108.616C-27.1036 175.198 -198.601 388.258 -284.349 494.788L-370.098 601.318V681.216H-284.349C-198.601 681.216 -27.1036 681.216 144.394 681.216C315.891 681.216 487.388 681.216 658.885 681.216C830.382 681.216 1001.88 681.216 1173.38 681.216C1344.87 681.216 1516.37 681.216 1602.12 681.216H1687.87V201.83Z" fill="#47A4B8"/>
<path fill-rule="evenodd" clip-rule="evenodd" d="M2083.96 524.057L2030.88 532.884C1977.8 541.711 1871.64 559.365 1765.48 638.808C1659.32 718.251 1553.16 859.484 1447 903.619C1340.84 947.754 1234.68 894.792 1128.52 841.83C1022.37 788.868 916.206 735.905 810.047 735.905C703.888 735.905 597.729 788.868 491.569 824.176C385.41 859.484 279.251 877.138 173.092 868.311C66.9327 859.484 -39.2265 824.176 -145.386 841.83C-251.545 859.484 -357.704 930.1 -410.784 965.408L-463.863 1000.72V471.095H-410.784C-357.704 471.095 -251.545 471.095 -145.386 471.095C-39.2265 471.095 66.9327 471.095 173.092 471.095C279.251 471.095 385.41 471.095 491.569 471.095C597.729 471.095 703.888 471.095 810.047 471.095C916.206 471.095 1022.37 471.095 1128.52 471.095C1234.68 471.095 1340.84 471.095 1447 471.095C1553.16 471.095 1659.32 471.095 1765.48 471.095C1871.64 471.095 1977.8 471.095 2030.88 471.095H2083.96V524.057Z" fill="#77D5DC"/>
<path fill-rule="evenodd" clip-rule="evenodd" d="M2117.98 498.151L2064.91 506.978C2011.83 515.805 1905.67 533.459 1799.51 612.903C1693.35 692.346 1587.19 833.578 1481.03 877.713C1374.87 921.849 1268.71 868.886 1162.55 815.924C1056.39 762.962 950.234 710 844.075 710C737.916 710 631.756 762.962 525.597 798.27C419.438 833.578 313.279 851.232 207.12 842.405C100.961 833.578 -5.19863 798.27 -111.358 815.924C-217.517 833.578 -323.676 904.195 -376.756 939.503L-429.835 974.811V445.189H-376.756C-323.676 445.189 -217.517 445.189 -111.358 445.189C-5.19863 445.189 100.961 445.189 207.12 445.189C313.279 445.189 419.438 445.189 525.597 445.189C631.756 445.189 737.916 445.189 844.075 445.189C950.234 445.189 1056.39 445.189 1162.55 445.189C1268.71 445.189 1374.87 445.189 1481.03 445.189C1587.19 445.189 1693.35 445.189 1799.51 445.189C1905.67 445.189 2011.83 445.189 2064.91 445.189H2117.98V498.151Z" fill="#47A4B8"/>
</g>
</svg>
