<svg width="1440" height="240" viewBox="0 0 1440 240" fill="none" xmlns="http://www.w3.org/2000/svg">
<mask id="mask0" mask-type="alpha" maskUnits="userSpaceOnUse" x="0" y="0" width="1440" height="240">
<rect width="1440" height="240" transform="matrix(-1 0 0 1 1440 0)" fill="#C4C4C4"/>
</mask>
<g mask="url(#mask0)">
<path fill-rule="evenodd" clip-rule="evenodd" d="M1721.16 15.3437L1631.67 70.3079C1542.17 125.272 1363.18 235.201 1184.19 235.201C1005.2 235.201 826.207 125.272 647.216 125.272C468.225 125.272 289.234 235.201 110.243 143.594C-68.7485 51.9866 -247.739 -241.156 -337.235 -387.727L-426.731 -534.299V-644.227H-337.235C-247.739 -644.227 -68.7485 -644.227 110.243 -644.227C289.234 -644.227 468.225 -644.227 647.216 -644.227C826.207 -644.227 1005.2 -644.227 1184.19 -644.227C1363.18 -644.227 1542.17 -644.227 1631.67 -644.227H1721.16V15.3437Z" fill="#77D5DC"/>
<path fill-rule="evenodd" clip-rule="evenodd" d="M1675.12 -35.8903L1585.62 19.0739C1496.13 74.0382 1317.14 183.967 1138.15 183.967C959.155 183.967 780.164 74.0382 601.173 74.0382C422.182 74.0382 243.191 183.967 64.1996 92.3596C-114.791 0.752544 -293.782 -292.39 -383.278 -438.961L-472.774 -585.533V-695.461H-383.278C-293.782 -695.461 -114.791 -695.461 64.1996 -695.461C243.191 -695.461 422.182 -695.461 601.173 -695.461C780.164 -695.461 959.155 -695.461 1138.15 -695.461C1317.14 -695.461 1496.13 -695.461 1585.62 -695.461H1675.12V-35.8903Z" fill="#47A4B8"/>
</g>
</svg>
