<svg width="1440" height="298" viewBox="0 0 1440 298" fill="none" xmlns="http://www.w3.org/2000/svg">
<mask id="mask0" mask-type="alpha" maskUnits="userSpaceOnUse" x="0" y="0" width="1440" height="298">
<rect width="1440" height="298" fill="#C4C4C4"/>
</mask>
<g mask="url(#mask0)">
<path fill-rule="evenodd" clip-rule="evenodd" d="M-47 73.3435L33.639 128.308C114.278 183.272 275.556 293.2 436.834 293.2C598.112 293.2 759.39 183.272 920.668 183.272C1081.95 183.272 1243.22 293.2 1404.5 201.593C1565.78 109.986 1727.06 -183.156 1807.7 -329.728L1888.34 -476.299V-586.227H1807.7C1727.06 -586.227 1565.78 -586.227 1404.5 -586.227C1243.22 -586.227 1081.95 -586.227 920.668 -586.227C759.39 -586.227 598.112 -586.227 436.834 -586.227C275.556 -586.227 114.278 -586.227 33.639 -586.227H-47V73.3435Z" fill="#77D5DC"/>
<path fill-rule="evenodd" clip-rule="evenodd" d="M-5.51343 22.1095L75.1255 77.0737C155.765 132.038 317.042 241.966 478.32 241.966C639.598 241.966 800.876 132.038 962.154 132.038C1123.43 132.038 1284.71 241.966 1445.99 150.359C1607.27 58.7524 1768.54 -234.39 1849.18 -380.962L1929.82 -527.533V-637.461H1849.18C1768.54 -637.461 1607.27 -637.461 1445.99 -637.461C1284.71 -637.461 1123.43 -637.461 962.154 -637.461C800.876 -637.461 639.598 -637.461 478.32 -637.461C317.042 -637.461 155.765 -637.461 75.1255 -637.461H-5.51343V22.1095Z" fill="#47A4B8"/>
</g>
</svg>
