<svg width="1440" height="361" viewBox="0 0 1440 361" fill="none" xmlns="http://www.w3.org/2000/svg">
<mask id="mask0" mask-type="alpha" maskUnits="userSpaceOnUse" x="0" y="0" width="1440" height="181">
<rect width="1440" height="181" transform="matrix(-1 0 0 1 1440 0)" fill="#C4C4C4"/>
</mask>
<g mask="url(#mask0)">
<path fill-rule="evenodd" clip-rule="evenodd" d="M-23.569 53.2993L-66.3794 17.2734V269.455V557.224L-1.51517 569.215C63.3491 581.205 193.078 605.186 322.806 575.21C381.184 561.721 439.561 537.305 497.939 512.89C569.29 483.049 640.641 453.208 711.991 443.316C807.126 430.126 902.26 452.402 997.394 474.677C1031.99 482.777 1066.58 490.877 1101.18 497.272C1230.91 521.253 1360.63 521.253 1425.5 521.253H1490.36V269.455L1447.55 233.429C1445.27 231.567 1442.88 229.61 1440.39 227.566C1394.59 190.053 1313.33 123.49 1230.91 89.3252C1143.99 53.2993 1058.37 53.2993 971.448 83.3209C942.285 93.3941 913.267 106.847 884.298 120.278C826.927 146.875 769.746 173.386 711.991 173.386C668.532 173.386 625.398 158.375 582.263 143.364C539.128 128.353 495.993 113.343 452.534 113.343C411.131 113.343 370.022 126.967 328.926 140.587C283.751 155.559 238.592 170.526 193.078 167.381C108.75 161.556 25.643 93.5611 -19.5161 56.6135C-20.9032 55.4786 -22.2545 54.373 -23.569 53.2993Z" fill="#77D5DC"/>
<path fill-rule="evenodd" clip-rule="evenodd" d="M-24.589 -5.74314L-67.3994 -41.769V210.412V498.182L-2.53519 510.172C62.329 522.163 192.057 546.143 321.786 516.167C380.164 502.678 438.542 478.263 496.919 453.847C568.27 424.006 639.621 394.165 710.971 384.273C806.106 371.084 901.24 393.359 996.374 415.635C1030.97 423.735 1065.56 431.835 1100.16 438.23C1229.89 462.211 1359.61 462.211 1424.48 462.211H1489.34V210.412L1446.53 174.386C1444.25 172.525 1441.86 170.567 1439.37 168.523C1393.57 131.011 1312.31 64.4472 1229.89 30.2828C1142.97 -5.74314 1057.35 -5.74314 970.428 24.2785C941.265 34.3516 912.247 47.8046 883.278 61.2353C825.907 87.8329 768.726 114.343 710.971 114.343C667.512 114.343 624.378 99.3324 581.243 84.3216C538.108 69.3108 494.973 54.3 451.514 54.3C410.111 54.3 369.002 67.9245 327.906 81.5443C282.731 96.5165 237.572 111.483 192.057 108.339C107.73 102.514 24.623 34.5186 -20.5361 -2.42901C-21.9232 -3.56392 -23.2746 -4.66953 -24.589 -5.74314Z" fill="#77D5DC"/>
<path fill-rule="evenodd" clip-rule="evenodd" d="M1.9349 24.2783L-40.8755 -11.7476V240.434H1.9349H218.581H478.038H737.495H996.952H1256.41H1473.06H1515.87L1473.06 204.408C1470.78 202.546 1468.39 200.589 1465.89 198.545C1420.1 161.032 1338.84 94.4687 1256.41 60.3042C1169.49 24.2783 1083.87 24.2783 996.952 54.2999C967.789 64.3731 938.771 77.826 909.802 91.2568C852.431 117.854 795.25 144.365 737.495 144.365C694.036 144.365 650.902 129.354 607.767 114.343C564.632 99.3323 521.497 84.3215 478.038 84.3215C436.635 84.3215 395.526 97.946 354.43 111.566C309.255 126.538 264.096 141.505 218.581 138.36C134.254 132.535 51.1469 64.5401 5.98783 27.5925C4.60069 26.4576 3.24936 25.352 1.9349 24.2783ZM23.9887 540.194L-40.8755 528.204V240.434H23.9887H348.31H737.495H1126.68H1451H1515.87V492.233H1451C1386.14 492.233 1256.41 492.233 1126.68 468.252C1092.09 461.857 1057.49 453.757 1022.9 445.657C927.764 423.381 832.63 401.106 737.495 414.295C666.145 424.187 594.794 454.028 523.443 483.869C465.066 508.285 406.688 532.7 348.31 546.189C218.581 576.165 88.853 552.185 23.9887 540.194Z" fill="#47A4B8"/>
</g>
<mask id="mask1" mask-type="alpha" maskUnits="userSpaceOnUse" x="0" y="181" width="1440" height="180">
<rect width="1440" height="180" transform="matrix(1 0 0 -1 0 361)" fill="#C4C4C4"/>
</mask>
<g mask="url(#mask1)">
<path fill-rule="evenodd" clip-rule="evenodd" d="M1661.78 308.701L1715.09 344.727V92.5452V-195.224L1634.32 -207.215H1634.32C1553.55 -219.205 1392.01 -243.186 1230.47 -213.21C1157.78 -199.721 1085.09 -175.305 1012.39 -150.89C923.544 -121.049 834.697 -91.2076 745.85 -81.3155C627.387 -68.1261 508.924 -90.4016 390.461 -112.677C347.383 -120.777 304.306 -128.877 261.228 -135.272C99.6875 -159.253 -61.8531 -159.253 -142.623 -159.253H-223.394V92.5452L-170.085 128.571C-167.247 130.433 -164.271 132.39 -161.164 134.434C-104.139 171.947 -2.95203 238.51 99.6875 272.675C207.92 308.701 314.536 308.701 422.769 278.679C459.084 268.606 495.217 255.153 531.291 241.722C602.729 215.125 673.933 188.614 745.85 188.614C799.966 188.614 853.678 203.625 907.39 218.636C961.103 233.647 1014.81 248.657 1068.93 248.657C1120.49 248.657 1171.68 235.033 1222.85 221.413C1279.1 206.441 1335.34 191.474 1392.01 194.619C1497.02 200.444 1600.51 268.439 1656.74 305.387C1658.47 306.521 1660.15 307.627 1661.78 308.701Z" fill="#77D5DC"/>
<path fill-rule="evenodd" clip-rule="evenodd" d="M1663.05 367.743L1716.36 403.769V151.588V-136.182L1635.59 -148.172C1554.82 -160.163 1393.28 -184.143 1231.74 -154.167C1159.05 -140.678 1086.35 -116.263 1013.66 -91.8473C924.814 -62.0062 835.967 -32.1651 747.12 -22.273C628.657 -9.08359 510.194 -31.3591 391.731 -53.6346C348.653 -61.7347 305.576 -69.8349 262.498 -76.2298C100.958 -100.211 -60.5831 -100.211 -141.353 -100.211H-222.124V151.588L-168.815 187.614C-165.977 189.475 -163.001 191.433 -159.894 193.477C-102.869 230.99 -1.68201 297.553 100.958 331.717C209.19 367.743 315.806 367.743 424.039 337.722C460.354 327.648 496.487 314.195 532.561 300.765C603.999 274.167 675.203 247.657 747.12 247.657C801.236 247.657 854.948 262.668 908.66 277.678C962.373 292.689 1016.08 307.7 1070.2 307.7C1121.76 307.7 1172.95 294.076 1224.12 280.456C1280.37 265.484 1336.61 250.517 1393.28 253.661C1498.29 259.486 1601.78 327.481 1658.01 364.429C1659.74 365.564 1661.42 366.67 1663.05 367.743Z" fill="#77D5DC"/>
<path fill-rule="evenodd" clip-rule="evenodd" d="M1630.03 337.722L1683.34 373.748V121.566H1630.03H1360.25H1037.17H714.092H391.011H67.9297H-201.843H-255.151L-201.843 157.592C-199.005 159.454 -196.029 161.411 -192.922 163.455C-135.897 200.968 -34.7098 267.531 67.9297 301.696C176.162 337.722 282.779 337.722 391.011 307.7C427.326 297.627 463.459 284.174 499.533 270.743C570.971 244.146 642.175 217.635 714.092 217.635C768.208 217.635 821.92 232.646 875.633 247.657C929.345 262.668 983.057 277.678 1037.17 277.678C1088.73 277.678 1139.92 264.054 1191.09 250.434C1247.35 235.462 1303.58 220.495 1360.25 223.64C1465.26 229.465 1568.75 297.46 1624.98 334.408C1626.71 335.542 1628.39 336.648 1630.03 337.722ZM1602.57 -178.194L1683.34 -166.204V121.566H1602.57H1198.71H714.092H229.47H-174.381H-255.151V-130.233H-174.381C-93.611 -130.233 67.9297 -130.233 229.47 -106.252C272.548 -99.8569 315.625 -91.7567 358.703 -83.6565C477.166 -61.381 595.629 -39.1056 714.092 -52.295C802.939 -62.1871 891.787 -92.0282 980.634 -121.869C1053.33 -146.285 1126.02 -170.7 1198.71 -184.189C1360.25 -214.165 1521.79 -190.185 1602.57 -178.194Z" fill="#47A4B8"/>
</g>
</svg>
