<svg width="1440" height="354" viewBox="0 0 1440 354" fill="none" xmlns="http://www.w3.org/2000/svg">
<mask id="mask0" mask-type="alpha" maskUnits="userSpaceOnUse" x="0" y="0" width="1440" height="182">
<rect width="1440" height="182" transform="matrix(-1 0 0 1 1440 0)" fill="#C4C4C4"/>
</mask>
<g mask="url(#mask0)">
<path fill-rule="evenodd" clip-rule="evenodd" d="M-14.569 54.2993L-57.3794 18.2734V270.455V558.224L7.48483 570.215C72.3491 582.205 202.078 606.186 331.806 576.21C390.184 562.721 448.561 538.305 506.939 513.89C578.29 484.049 649.641 454.208 720.991 444.316C816.126 431.126 911.26 453.402 1006.39 475.677C1040.99 483.777 1075.58 491.877 1110.18 498.272C1239.91 522.253 1369.63 522.253 1434.5 522.253H1499.36V270.455L1456.55 234.429C1454.27 232.567 1451.88 230.61 1449.39 228.566C1403.59 191.053 1322.33 124.49 1239.91 90.3252C1152.99 54.2993 1067.37 54.2993 980.448 84.3209C951.285 94.3941 922.267 107.847 893.298 121.278C835.927 147.875 778.746 174.386 720.991 174.386C677.532 174.386 634.398 159.375 591.263 144.364C548.128 129.353 504.993 114.343 461.534 114.343C420.131 114.343 379.022 127.967 337.926 141.587C292.751 156.559 247.592 171.526 202.078 168.381C117.75 162.556 34.643 94.5611 -10.5161 57.6135C-11.9032 56.4786 -13.2545 55.373 -14.569 54.2993Z" fill="#77D5DC"/>
<path fill-rule="evenodd" clip-rule="evenodd" d="M-15.589 -4.74314L-58.3994 -40.769V211.412V499.182L6.46481 511.172C71.329 523.163 201.057 547.143 330.786 517.167C389.164 503.678 447.542 479.263 505.919 454.847C577.27 425.006 648.621 395.165 719.971 385.273C815.106 372.084 910.24 394.359 1005.37 416.635C1039.97 424.735 1074.56 432.835 1109.16 439.23C1238.89 463.211 1368.61 463.211 1433.48 463.211H1498.34V211.412L1455.53 175.386C1453.25 173.525 1450.86 171.567 1448.37 169.523C1402.57 132.011 1321.31 65.4472 1238.89 31.2828C1151.97 -4.74314 1066.35 -4.74314 979.428 25.2785C950.265 35.3516 921.247 48.8046 892.278 62.2353C834.907 88.8329 777.726 115.343 719.971 115.343C676.512 115.343 633.378 100.332 590.243 85.3216C547.108 70.3108 503.973 55.3 460.514 55.3C419.111 55.3 378.002 68.9245 336.906 82.5443C291.731 97.5165 246.572 112.483 201.057 109.339C116.73 103.514 33.623 35.5186 -11.5361 -1.42901C-12.9232 -2.56392 -14.2746 -3.66953 -15.589 -4.74314Z" fill="#77D5DC"/>
<path fill-rule="evenodd" clip-rule="evenodd" d="M10.9349 25.2783L-31.8755 -10.7476V241.434H10.9349H227.581H487.038H746.495H1005.95H1265.41H1482.06H1524.87L1482.06 205.408C1479.78 203.546 1477.39 201.589 1474.89 199.545C1429.1 162.032 1347.84 95.4687 1265.41 61.3042C1178.49 25.2783 1092.87 25.2783 1005.95 55.2999C976.789 65.3731 947.771 78.826 918.802 92.2568C861.431 118.854 804.25 145.365 746.495 145.365C703.036 145.365 659.902 130.354 616.767 115.343C573.632 100.332 530.497 85.3215 487.038 85.3215C445.635 85.3215 404.526 98.946 363.43 112.566C318.255 127.538 273.096 142.505 227.581 139.36C143.254 133.535 60.1469 65.5401 14.9878 28.5925C13.6007 27.4576 12.2494 26.352 10.9349 25.2783ZM32.9887 541.194L-31.8755 529.204V241.434H32.9887H357.31H746.495H1135.68H1460H1524.87V493.233H1460C1395.14 493.233 1265.41 493.233 1135.68 469.252C1101.09 462.857 1066.49 454.757 1031.9 446.657C936.764 424.381 841.63 402.106 746.495 415.295C675.145 425.187 603.794 455.028 532.443 484.869C474.066 509.285 415.688 533.7 357.31 547.189C227.581 577.165 97.853 553.185 32.9887 541.194Z" fill="#47A4B8"/>
</g>
<mask id="mask1" mask-type="alpha" maskUnits="userSpaceOnUse" x="0" y="173" width="1440" height="181">
<rect width="1440" height="181" transform="matrix(1 0 0 -1 0 354)" fill="#C4C4C4"/>
</mask>
<g mask="url(#mask1)">
<path fill-rule="evenodd" clip-rule="evenodd" d="M1623.78 300.701L1677.09 336.727V84.5452V-203.224L1596.32 -215.215H1596.32C1515.55 -227.205 1354.01 -251.186 1192.47 -221.21C1119.78 -207.721 1047.09 -183.305 974.392 -158.89C885.544 -129.049 796.697 -99.2076 707.85 -89.3155C589.387 -76.1261 470.924 -98.4016 352.461 -120.677C309.383 -128.777 266.306 -136.877 223.228 -143.272C61.6875 -167.253 -99.8531 -167.253 -180.623 -167.253H-261.394V84.5452L-208.085 120.571C-205.247 122.433 -202.271 124.39 -199.164 126.434C-142.139 163.947 -40.952 230.51 61.6875 264.675C169.92 300.701 276.536 300.701 384.769 270.679C421.084 260.606 457.217 247.153 493.291 233.722C564.729 207.125 635.933 180.614 707.85 180.614C761.966 180.614 815.678 195.625 869.39 210.636C923.103 225.647 976.815 240.657 1030.93 240.657C1082.49 240.657 1133.68 227.033 1184.85 213.413C1241.1 198.441 1297.34 183.474 1354.01 186.619C1459.02 192.444 1562.51 260.439 1618.74 297.387C1620.47 298.521 1622.15 299.627 1623.78 300.701Z" fill="#77D5DC"/>
<path fill-rule="evenodd" clip-rule="evenodd" d="M1625.05 359.743L1678.36 395.769V143.588V-144.182L1597.59 -156.172C1516.82 -168.163 1355.28 -192.143 1193.74 -162.167C1121.05 -148.678 1048.35 -124.263 975.662 -99.8473C886.814 -70.0062 797.967 -40.1651 709.12 -30.273C590.657 -17.0836 472.194 -39.3591 353.731 -61.6346C310.653 -69.7347 267.576 -77.8349 224.498 -84.2298C62.9575 -108.211 -98.5831 -108.211 -179.353 -108.211H-260.124V143.588L-206.815 179.614C-203.977 181.475 -201.001 183.433 -197.894 185.477C-140.869 222.99 -39.682 289.553 62.9575 323.717C171.19 359.743 277.806 359.743 386.039 329.722C422.354 319.648 458.487 306.195 494.561 292.765C565.999 266.167 637.203 239.657 709.12 239.657C763.236 239.657 816.948 254.668 870.66 269.678C924.373 284.689 978.085 299.7 1032.2 299.7C1083.76 299.7 1134.95 286.076 1186.12 272.456C1242.37 257.484 1298.61 242.517 1355.28 245.661C1460.29 251.486 1563.78 319.481 1620.01 356.429C1621.74 357.564 1623.42 358.67 1625.05 359.743Z" fill="#77D5DC"/>
<path fill-rule="evenodd" clip-rule="evenodd" d="M1592.03 329.722L1645.34 365.748V113.566H1592.03H1322.25H999.173H676.092H353.011H29.9297H-239.843H-293.151L-239.843 149.592C-237.005 151.454 -234.029 153.411 -230.922 155.455C-173.897 192.968 -72.7098 259.531 29.9297 293.696C138.162 329.722 244.779 329.722 353.011 299.7C389.326 289.627 425.459 276.174 461.533 262.743C532.971 236.146 604.175 209.635 676.092 209.635C730.208 209.635 783.92 224.646 837.633 239.657C891.345 254.668 945.057 269.678 999.173 269.678C1050.73 269.678 1101.92 256.054 1153.09 242.434C1209.35 227.462 1265.58 212.495 1322.25 215.64C1427.26 221.465 1530.75 289.46 1586.98 326.408C1588.71 327.542 1590.39 328.648 1592.03 329.722ZM1564.57 -186.194L1645.34 -174.204V113.566H1564.57H1160.71H676.092H191.47H-212.381H-293.151V-138.233H-212.381C-131.611 -138.233 29.9297 -138.233 191.47 -114.252C234.548 -107.857 277.625 -99.7567 320.703 -91.6565C439.166 -69.381 557.629 -47.1056 676.092 -60.295C764.939 -70.1871 853.787 -100.028 942.634 -129.869C1015.33 -154.285 1088.02 -178.7 1160.71 -192.189C1322.25 -222.165 1483.79 -198.185 1564.57 -186.194Z" fill="#47A4B8"/>
</g>
</svg>
